<?xml version="1.0" encoding="UTF-8" standalone="no"?>
<!DOCTYPE svg PUBLIC "-//W3C//DTD SVG 1.1//EN" "http://www.w3.org/Graphics/SVG/1.1/DTD/svg11.dtd">
<svg width="4096px" height="4096px" version="1.1" xmlns="http://www.w3.org/2000/svg" xmlns:xlink="http://www.w3.org/1999/xlink" xml:space="preserve" xmlns:serif="http://www.serif.com/" style="fill-rule:evenodd;clip-rule:evenodd;stroke-linejoin:round;stroke-miterlimit:2;">
    <g transform="matrix(1,0,0,1,-4272.7,0)">
        <g id="Main-Light" transform="matrix(1,0,0,1,4272.7,0)">
            <rect x="0" y="0" width="4096" height="4096" style="fill:none;"/>
            <g transform="matrix(1,0,0,1,-568.262,-1294.32)">
                <path d="M850.949,3984.71L1508.66,2699.92L2039.49,2699.92L1909.7,3984.71L1564.07,3984.71L1571.37,3860.76L1326.37,3551.59L1618.03,3551.59L1673.45,3064.51L1673.45,3028.05L1437.2,3503.46L1203.87,3503.46L1348.24,3693.05L1198.03,3984.71L850.949,3984.71Z" style="fill:#fff;fill-rule:nonzero;"/>
                <path d="M2910.12,3984.71L2138.66,3984.71C2129.91,3984.71 2121.16,3982.28 2112.41,3977.42C2104.63,3972.56 2097.34,3966.24 2090.53,3958.46C2084.7,3950.68 2079.35,3942.42 2074.49,3933.67C2070.6,3925.89 2068.66,3918.12 2068.66,3910.34C2068.66,3904.51 2069.14,3901.1 2070.12,3900.13L2215.95,3426.17L2479.91,3601.17L2437.62,3736.8L2665.12,3736.8L2717.62,3567.63L2275.74,3229.3L2437.62,2699.92L3209.07,2699.92C3217.82,2699.92 3226.09,2702.35 3233.87,2707.21C3241.64,2712.07 3248.93,2718.39 3255.74,2726.17C3262.55,2733.95 3267.89,2742.21 3271.78,2750.96C3275.67,2759.71 3278.1,2767.49 3279.07,2774.3C3279.07,2780.13 3278.59,2783.53 3277.62,2784.51L3141.99,3229.3L2875.12,3052.84L2907.2,2947.84L2684.07,2947.84L2644.7,3074.71L3085.12,3413.05L2910.12,3984.71Z" style="fill:#fff;fill-rule:nonzero;"/>
                <path d="M3919.28,3984.71L3123.03,3984.71L3461.37,2879.3L3341.78,2699.92L4313.03,2699.92C4320.81,2699.92 4328.59,2702.35 4336.37,2707.21C4345.12,2712.07 4352.41,2718.39 4358.24,2726.17C4365.05,2733.95 4370.39,2742.21 4374.28,2750.96C4379.14,2759.71 4381.57,2767.49 4381.57,2774.3C4381.57,2781.1 4381.09,2784.51 4380.12,2784.51L4228.45,3283.26L4062.2,3364.92L4178.87,3443.67L4038.87,3900.13C4036.92,3906.93 4031.57,3915.2 4022.82,3924.92C4014.07,3934.64 4003.38,3943.88 3990.74,3952.63C3978.1,3961.38 3964.98,3968.67 3951.37,3974.51C3938.73,3981.31 3928.03,3984.71 3919.28,3984.71ZM3963.03,3106.8L4011.16,2947.84L3760.32,2947.84L3690.32,3178.26L3594.07,3238.05L3623.24,3394.09L3518.24,3736.8L3769.07,3736.8L3852.2,3465.55L3719.49,3529.71L3669.91,3267.21L3963.03,3106.8Z" style="fill:#fff;fill-rule:nonzero;"/>
            </g>
        </g>
    </g>
</svg>
