<?xml version="1.0" encoding="utf-8"?>
<!-- Generator: Adobe Illustrator 25.3.1, SVG Export Plug-In . SVG Version: 6.00 Build 0)  -->
<svg version="1.1" id="svg" xmlns="http://www.w3.org/2000/svg" xmlns:xlink="http://www.w3.org/1999/xlink" x="0px" y="0px"
	 viewBox="0 0 400 400" style="enable-background:new 0 0 400 400;" xml:space="preserve">
<style type="text/css">
	.st0{clip-path:url(#SVGID_2_);}
	.st1{fill-rule:evenodd;clip-rule:evenodd;fill:#328460;}
</style>
<g>
	<defs>
		<circle id="SVGID_1_" cx="200" cy="200" r="200"/>
	</defs>
	<clipPath id="SVGID_2_">
		<use xlink:href="#SVGID_1_"  style="overflow:visible;"/>
	</clipPath>
	<g id="svgg" class="st0">
		<path id="path1" class="st1" d="M213.5,24.4c0,0-0.7,0.1-1.5,0.2c-1.8,0.1-3.5,0.5-4.5,1c-1,0.5-2.5,1.8-2.5,2.2
			c0,0.4-0.3,0.4-1,0.1c-0.7-0.4-2.5-0.5-2.8-0.2c-0.1,0.1-0.6,0.1-1.6,0c-1.7-0.2-3,0-4,0.7c-0.4,0.2-1.1,0.7-1.6,1.1
			c-0.5,0.3-0.9,0.7-0.9,0.8c0,0.1-0.8,0.6-1.7,1.1c-1.9,1.1-2.7,1.1-3.7,0.4c-1.1-0.8-1.9-1-2.9-0.5c-0.6,0.3-2.9,1.1-4.8,1.6
			c-1.8,0.5-2.8,1.2-2.8,1.9c0,0.5-1,1.5-1.4,1.5c-0.6,0-1.8,1.6-2.5,3.4c-0.5,1.1-1,1.8-1.3,1.8c-0.1,0-0.5,0.5-0.8,1
			c-0.6,1-2.3,2.5-2.8,2.5c-0.1,0-0.4,0.3-0.6,0.6s-0.5,0.7-0.8,0.9c-0.2,0.2-0.8,0.6-1.3,1c-0.5,0.4-1,0.7-1.2,0.7
			c-0.5,0-1.5,0.4-1.5,0.7c0,0.1,0.1,0.2,0.2,0.2c0.8,0-1.4,2.9-3.9,5c-2.1,1.8-3.8,4-3.6,4.6c0.1,0.3-0.4,1.3-0.7,1.6
			c-0.8,0.7-4.3,9-5.2,12.4c-0.3,1-0.8,2.7-1.1,3.6c-4.8,15-4.9,15.5-4.9,22.1c0,2.8-0.1,5.4-0.2,6.3c-0.1,0.8-0.3,2.2-0.3,3.1
			c-0.1,0.9-0.4,3-0.7,4.7c-0.3,1.7-0.6,3.3-0.6,3.6c0,0.6,0.4,0.4,0.5-0.2c0.4-1.7,1.1-4,1.2-4.2c0.1-0.1,0.3-0.6,0.4-1
			c2.2-8.6,9-21.7,13.8-26.4c0.8-0.8,2.4-2.5,3.6-3.8c2.3-2.5,3.4-3.6,5-4.5c0.6-0.4,1.3-0.8,1.5-1c0.3-0.2,0.6-0.4,0.8-0.4
			c0.2,0,0.4-0.1,0.5-0.2c0.2-0.2,0.2-0.2,0.2,0c0,0.1-0.1,0.2-0.1,0.2s-0.2,0.2-0.3,0.4c-0.1,0.2-1.4,1.8-3,3.6s-3.4,4.1-4.2,5.2
			c-0.8,1.1-3,4.1-4.9,6.7c-5.2,6.9-4.3,5.3-10.3,17.5c-2,4.1-2.7,6.6-3.3,11.4c-0.4,3.2-0.9,4.4-0.7,1.8c0.1-1.9-0.4-1.6-1.1,0.8
			c-0.3,1-0.6,0.7-0.6-0.7c0-0.7-0.1-1.7-0.2-2.2c-0.5-1.7-0.3-4.3,0.6-8c0.4-1.9,0.5-7.7,0.1-9.4c-0.6-2.6-0.7-4.2-0.4-8.8
			c0.2-3.2,0.3-4.1,1-6.1c0.6-2,0.8-2.8,0.6-2.9c-0.2-0.1,0.3-1.6,0.8-2.5c0.2-0.4,0.6-1.3,0.9-2.1c0.6-1.6,0.8-1.9,1.1-1.7
			c0.2,0.1,0.1,0.4-0.2,1.4c-0.8,2.3-0.4,2.2,0.7-0.3c0.6-1.3,0.8-2,0.9-2.8c0.1-0.9,0.3-1.4,0.9-2.8c0.8-1.7,3-7.1,3-7.6
			c0-1-2.8,4.7-4.5,9.1c-0.3,0.8-0.7,1.2-0.9,0.9c-0.1-0.2,0.4-1.7,0.9-2.6c0.2-0.4,0.4-1,0.4-1.3c0-0.4,0.4-1.4,1.4-3.3
			c0.8-1.5,1.4-2.9,1.4-3c-0.1-0.2-1.2,1.4-1.7,2.5c-0.3,0.6-1.4,1.9-1.6,1.9c-0.2,0,1-2.7,1.7-3.8c0.8-1.4,1.8-2.9,2-2.9
			c0.1,0,1.1-1.2,2.2-2.7c1.1-1.5,2.9-3.6,3.8-4.6c1.6-1.8,2.8-3.3,2.8-3.6c0-0.6-5.8,5.7-8.3,9.1c-3.6,4.9-7.8,12.4-8.4,15.3
			c-0.4,1.8-2.2,7-3.9,11.2c-1.3,3.3-2,12.1-1.4,18.8c0.1,1.2,0.2,3.7,0.2,5.5c0,1.8,0.1,3.7,0.2,4.2c0.2,1.2,0.2,3.6,0,3.6
			c-0.5,0-1.2-4.8-1.2-8.3c0-1.6,0-6.4,0-10.7c0-10.5-0.2-9.6,3.5-20c0.4-1.1,0.6-1.7,0.4-1.5c-0.4,0.5-1.4,2.9-2,4.6
			c-0.7,1.9-1.6,3.9-1.8,3.9c-0.2,0-0.1-0.2,0.2-1.5c0.2-0.9,0.2-1.4-0.1-0.7c-0.8,1.7-1.4,4.8-1.5,7.4c-0.1,2.4-0.3,3.7-0.8,6.4
			c-0.2,1-0.2,2-0.2,8.5c0,3.8,0,4.8-0.3,4.8c-0.4,0-0.5-10.8-0.1-13.9c0.3-2.4,0.3-3.1,0-2.7c-0.3,0.4-0.6,1.9-0.7,4
			c-0.1,1.6-0.3,2.9-1.2,7.7c-0.5,2.6-0.7,10.1-0.4,16.8c0.3,7.4,0.4,9.9,0.2,12.1c-0.1,1.2-0.3,3.6-0.3,5.3l-0.1,3.1l-0.7,0.8
			l-0.7,0.8l0.5,0.4c0.3,0.2,0.6,0.4,0.7,0.4c0.2,0,1,0.8,1.3,1.3c0.2,0.3,0.2,1.7,0,6c-0.1,3.1-0.2,5.6-0.1,5.7
			c0.1,0.1,0.8-3.8,1.3-6.3c0.4-2.4,0.5-4.2,0.5-6.9c0-3.1,0-3.2,0.7-2c0.8,1.7,1,4.7,0.5,8c-0.1,0.6-0.3,2.5-0.4,4.2l-0.2,3.1
			l0.6,1.7c0.3,0.9,0.8,2.4,1,3.3c0.6,2.4,1,3.4,2.1,5c1.9,2.8,2.7,4.8,4.6,11c0.5,1.7,1.1,4,1.4,5.1c0.2,1.1,0.5,2.4,0.7,2.8
			c0.1,0.4,0.3,1.6,0.5,2.7c0.3,2.1,0.4,2.6,1,6.6l0.4,2.7l-0.3,1.7c-0.2,0.9-0.5,2.1-0.7,2.6c-0.2,0.5-0.5,1.3-0.6,1.8
			c-0.1,0.5-0.7,2.1-1.2,3.6c-1.1,3-1.8,5.2-1.8,5.6c0,0.4-0.9,2.8-1.3,3.5c-0.2,0.3-0.4,0.8-0.5,1.1l-0.2,0.6l-0.1-0.5
			c-0.1-0.3,0-0.8,0.2-1.4c0.4-1.2,0.8-2.6,1.2-4.5c0.2-0.8,0.7-2.4,1.1-3.5c0.4-1.1,0.9-2.7,1.2-3.5s0.6-1.9,0.8-2.3
			c1.1-2.2,1.2-4.9,0.4-9c-0.2-1.3-0.4-2.5-0.4-2.8c0-1-1.2-7-1.8-9c-0.1-0.3-0.2-0.7-0.3-1c-0.1-0.3-0.2-0.6-0.3-0.6
			c-0.1-0.1-0.1,0.1-0.1,0.5c0.1,0.3,0.2,1.1,0.3,1.7c0.1,0.6,0.3,1.5,0.4,2c0.3,1.2,0.6,2.6,0.9,4.7c0.5,3.8,0.9,9.1,0.8,9.9
			c0,0.3-0.1,1.3-0.2,2.1c-0.1,1.7-0.6,3.3-1.2,4.1c-0.2,0.3-0.6,1-0.8,1.6c-0.4,1.2-1,2.3-1.3,2.3c-0.1,0-0.2,0.1-0.2,0.2
			c0,0.4-0.8,0.5-1,0.2c-0.1-0.2-0.3-0.3-0.4-0.3c-0.2,0-0.2-0.1,0-0.3c0.1-0.2,0.2-0.4,0-0.5c-0.6-0.5-0.8-0.8-0.8-2.7
			c-0.1-2.9-0.4-4.4-1-4.9c-0.6-0.5-1.6-3.7-1.9-6.1c-0.1-0.9-0.3-2.2-0.3-3c-0.1-0.8-0.2-1.8-0.2-2.4c0-0.5-0.2-1.8-0.5-2.8
			c-0.3-1-0.5-2.2-0.6-2.6c-0.1-0.8-1.5-6.9-1.7-8c-0.1-0.3-0.3-1.3-0.4-2.2c-0.1-0.9-0.3-1.8-0.4-2.1c-0.1-0.2-0.2-1.1-0.2-2
			c0-0.8-0.1-1.8-0.1-2l-0.1-0.5l-0.1,0.4c-0.7,2.5-0.8,4.9-0.4,6.8c0.1,0.6,0.4,2.2,0.6,3.7c0.2,1.4,0.6,3.3,0.8,4.2
			c0.4,1.7,0.4,2.5,0.2,2.2c-0.3-0.4-1.2-3.8-1.5-5.8c-0.2-1.6-0.4-2.5-0.8-4.5c-0.4-1.9-0.6-8.5-0.2-10.4c0.2-1.3,0-2.1-0.9-3
			c-0.4-0.4-0.5-0.7-0.5-1.1c0-0.3-0.1-0.5-0.2-0.6c-0.3-0.3-0.5,0-0.5,0.6c0,0.3-0.1,0.6-0.2,0.7c-0.1,0.1-0.2,0.2-0.2,0.4
			c0,0.4-0.6,1.1-0.9,0.9c-0.1-0.1-0.1-1.1-0.1-3.6c0.2-7-1-10.6-3.7-10.6c-0.7,0-0.8,5.1-0.1,5.6c0.2,0.1,0.4,0.5,0.6,0.9
			c0.2,0.4,0.4,1.1,0.6,1.5c0.3,0.6,0.5,1.7,1.1,5.2c0.1,0.4,0.1,3.4,0.1,6.8c0,5.9,0.2,8.5,0.5,9.2c0.1,0.2,0.2,0.5,0.2,0.7
			c0,0.3,0.3,0.6,0.4,0.5c0.1-0.1-0.1-0.9-0.6-2.5c-0.3-1.1-0.3-4.1,0-4.6c0.1-0.2,0.4-1,0.5-1.8c0.4-3.1,0.6-1.8,0.6,5
			c0,0.3,0.1,1.4,0.2,2.4c0.2,1.6,0.1,1.8-0.1,2c-0.3,0.2-0.3,0.3,0.2,1.3c0.2,0.6,0.6,1.7,0.7,2.5c0.3,2,0.5,2.6,1.2,3.5
			c0.9,1.1,1.1,1.5,1.4,2.5c0.1,0.5,0.6,1.5,1,2.2c0.4,0.7,0.8,1.8,0.9,2.3c0.1,0.6,0.3,1.3,0.5,1.7s0.3,0.8,0.3,1
			c0,0.4,0.5,1.3,0.7,1.1c0.4-0.2,0.2-1.5-0.4-2.5c-0.3-0.6-0.6-1.4-0.7-1.8c-0.1-0.4-0.4-1.4-0.8-2.2c-0.4-0.8-0.8-1.9-0.9-2.5
			c-0.2-0.8-0.4-1.2-0.9-1.7c-1.2-1.2-2.2-3.6-2.1-4.7c0.1-1.1,0.4-1,0.8,0.1c0.5,1.4,2.2,4.7,2.8,5.3c0.8,0.8,1.1,1.3,1.3,2.5
			c0.1,0.5,0.3,1.1,0.4,1.4c0.1,0.3,0.4,1.5,0.6,2.7c0.2,1.2,0.5,2.5,0.6,2.9c0.4,1.6,0.5,4.7,0.4,8.8c-0.3,11.5-0.1,22.5,0.6,26.8
			c0.2,1.1,0.5,3,0.7,4.4c0.4,2.8,0.7,3.9,1.1,3.8c0.3-0.1,0.9,0.7,1.1,1.5c0.5,2.2,1.2,3.6,1.2,2.8c0-0.3,0.8,0.5,0.8,0.8
			c0,0.1,0.4,0.6,0.8,1.2c0.5,0.6,1,1.5,1.3,2c1.2,2.4,4,5.3,7.9,8.2c0.8,0.6,1.3,1.1,1.3,1.3c0,0.2,0.3,0.4,1,0.8
			c1,0.4,1.4,0.9,1.4,1.6c0,0.2,0.2,0.4,0.4,0.6c0.2,0.1,0.4,0.4,0.4,0.6c0,0.2,0.1,0.3,0.1,0.3s0.2,0.2,0.2,0.5
			c0.1,0.3,0.3,0.6,0.6,0.8c0.3,0.2,0.7,0.5,0.9,0.8c0.2,0.2,0.7,0.7,1.1,0.9c0.7,0.4,0.8,0.6,0.7,1c0,0.1,0.3,0.4,0.7,0.7
			c0.8,0.5,1,1,0.8,1.3c-0.3,0.3-0.1,1,0.5,1.6c0.4,0.5,1.1,0.6,3,0.7c0.1,0,0.4,0.1,0.5,0.1c0.2,0.1,0.4,0.1,1.4,0.2
			c0.3,0,0.5,0.1,0.5,0.3c0.1,0.2,0.4,0.4,0.8,0.5c0.4,0.1,0.7,0.3,0.8,0.4c0,0.1,0.2,0.2,0.4,0.2s0.4,0.1,0.6,0.3
			c0.2,0.1,0.5,0.2,0.5,0.2c0.1-0.1,0.2,0,0.3,0.2c0.1,0.3,0.5,0.5,1.1,0.4c0.2,0,0.1,0.3-0.1,0.4c-0.3,0.1,1.4,1,2.4,1.3
			c0.5,0.1,0.8,0.3,0.8,0.4c0,0.1,0.2,0.3,0.5,0.4c0.3,0.1,0.4,0.2,0.2,0.3c-0.3,0.1,0.2,0.5,0.6,0.5c0.3,0,1.5,0.8,1.8,1.1
			c0.1,0.1,0.3,0.2,0.6,0.3c0.2,0,0.4,0.1,0.5,0.2c0.1,0.1,0.3,0.3,0.6,0.4c0.3,0.2,0.5,0.4,0.5,0.6c0,0.2,0.2,0.3,0.5,0.4
			c0.3,0.1,0.6,0.3,0.8,0.4c0.1,0.2,0.5,0.4,0.9,0.6c1.1,0.5,1.2,0.5,1.2,0.9c0.1,0.5,1,1.5,1.2,1.5c0.1,0,0.3,0.2,0.4,0.4
			c0.1,0.2,0.4,0.5,0.9,0.6c0.5,0.2,0.7,0.3,0.9,0.8c0.1,0.3,0.4,0.6,0.5,0.6c0.1,0,0.3,0.1,0.3,0.2c0,0.1,0.1,0.2,0.3,0.2
			c0.1,0,0.4,0.1,0.5,0.2c0.1,0.1,0.4,0.2,0.6,0.2s0.3,0.1,0.3,0.2c0,0.1,0.3,0.3,0.6,0.5c0.3,0.2,0.7,0.4,0.8,0.6
			c0.1,0.2,0.3,0.3,0.4,0.3c0.1,0,0.4,0.3,0.6,0.6c0.2,0.3,0.8,0.7,1.2,0.9c0.4,0.2,1.3,0.9,2,1.6c0.7,0.7,1.4,1.3,1.5,1.3
			c0.1,0,0.3,0.1,0.4,0.2s0.3,0.2,0.5,0.2c0.5,0,1.2,0.6,0.9,0.7c-0.1,0,0.1,0.1,0.5,0.2c0.9,0.1,1.3,0.4,1,0.6
			c-0.5,0.3,0.6,1.7,1.6,2c0.2,0.1,0.3,0.2,0.3,0.4c0,0.1,0.2,0.3,0.4,0.4c0.2,0.1,0.3,0.2,0.2,0.2c-0.3,0.2-0.4,1.2-0.1,1.3
			c0.1,0.1,0.3,0.2,0.3,0.3c0,0.1,0.1,0.3,0.3,0.4c0.7,0.5,0.4,1.8-0.4,2c-0.2,0-0.3,0.2-0.3,0.4c0.1,0.5-0.2,0.9-0.7,0.9
			c-0.2,0-0.3,0.1-0.3,0.4c0,0.2-0.2,0.5-0.4,0.7s-0.5,0.6-0.8,0.9c-0.2,0.3-0.6,0.7-1,0.9c-0.6,0.3-0.8,0.6-0.3,0.6
			c0.3,0,0.3,0,0,0.2c-0.5,0.3-3.5,0.3-5,0.1c-3.9-0.6-12.1-1.5-12.5-1.2c-0.3,0.2,0.7,0.7,1.2,0.7c0.5,0,1.7,0.4,1.7,0.5
			c0,0.3-2.5,0-5.2-0.5c-1.3-0.3-3.2-0.6-4.2-0.8c-6.2-0.9-9.7-1.8-15.7-4.3c-4.5-1.8-8.1-4.3-8.1-5.4c0-0.1-0.4-0.6-0.8-1.2
			c-0.4-0.6-1.4-2.1-2-3.3c-0.7-1.2-1.5-2.6-1.8-3.1c-0.4-0.7-0.9-1.8-1.7-3.7c-0.1-0.2-0.5-1.1-0.9-1.9c-0.5-1.1-0.9-2.3-1.2-3.5
			c-0.2-1-0.6-2.2-0.7-2.6c-0.2-0.4-0.3-1-0.3-1.4c0-0.6-0.5-3.8-0.8-4.9c0-0.2-0.2-0.4-0.3-0.4c-0.6,0-0.8-9.1-0.2-13.2
			c0.4-3.2,0.1-7.8-0.5-8.6l-0.3-0.4l-0.3,0.6c-0.2,0.3-0.5,0.9-0.6,1.4c-0.2,0.5-0.4,1-0.5,1.2c-0.5,0.7,0,0.8,0.6,0.1
			c0.5-0.5,0.9-0.6,0.8,0c-0.1,0.2-0.2,1.5-0.3,3c-0.2,3.8-0.9,5-3.4,5.9c-0.4,0.1-1.1,0.4-1.5,0.5c-2.1,0.7-3.8,0.6-4.6-0.3
			c-0.2-0.2-0.4-0.4-0.6-0.4c-0.2,0-0.3-0.1-0.3-0.2c0.1-0.4-1.4,0.1-2.5,0.7c-0.6,0.3-1.5,0.8-2,1c-1.6,0.7-3.7,2.4-6.5,5.3
			c-0.7,0.7-1.2,1.2-1.3,1.2c0-0.1-0.1-0.3-0.2-0.6c-0.1-0.6-0.3-0.6-1.1,0c-1.2,0.8-1.4,0.9-1.8,1.7c-0.3,0.4-0.6,0.8-0.7,0.8
			c-0.1,0-0.2,0.1-0.2,0.2c0,0.6-2,1.9-2.9,1.9c-0.5,0-1.7-0.9-1.7-1.3c0-0.2-1-0.3-1.3-0.1c-0.1,0.1-0.3,0.1-0.5,0
			c-0.2-0.1-0.4-0.1-0.5,0c-0.1,0.1-0.3,0.1-0.4,0c-0.1-0.1-0.4-0.1-0.5-0.1c-0.2,0.1-0.4,0-0.4,0c0-0.1-0.3-0.2-0.6-0.2
			c-0.3,0-0.8-0.2-1.1-0.5c-0.3-0.2-0.8-0.5-1.1-0.5c-0.3-0.1-0.6-0.2-0.7-0.2c0-0.1-0.3-0.1-0.5-0.1s-0.4-0.1-0.4-0.2
			c0-0.1-0.2-0.2-0.3-0.2c-0.2,0-0.6-0.1-1-0.3c-0.4-0.2-1.4-0.4-2.5-0.5c-1-0.1-2.2-0.3-2.6-0.4c-0.4-0.1-0.9-0.2-1.1-0.2
			c-0.2,0-0.6-0.2-0.8-0.4c-0.3-0.3-0.6-0.4-1-0.4c-0.3,0-0.6-0.1-0.8-0.3c-0.2-0.2-0.7-0.4-1.1-0.6c-2.2-0.7-2.6-0.9-3.5-1.4
			c-0.7-0.4-1.1-0.5-1.1-0.3c0,0.1-0.1,0.1-0.1-0.1c0-0.2-0.2-0.3-0.5-0.3c-0.3,0-0.5-0.1-0.5-0.1c0-0.1-0.2-0.2-0.5-0.3
			c-0.3-0.1-0.5-0.3-0.5-0.4c0-0.3-0.6-1.3-0.9-1.4c-0.1,0-0.1-0.2,0-0.4c0.1-0.3,0-0.4-0.2-0.5c-0.2-0.1-0.3-0.3-0.3-0.9
			c0-0.4,0-1,0-1.2c0-0.4-0.5-1.1-1-1.2c-0.1-0.1-0.4-0.4-0.5-0.8c-0.1-0.4-0.3-0.9-0.4-1.1c-0.1-0.2-0.2-0.6-0.2-0.9
			c0-0.6-0.4-1.4-0.9-1.7c-0.2-0.1-0.4-0.3-0.5-0.4c-0.2-0.4-0.5,0.4-0.7,1.7c-0.1,0.6-0.2,1.4-0.3,1.7c-0.1,0.3-0.3,0.9-0.3,1.4
			c-0.1,0.5-0.2,1.1-0.4,1.5c-0.5,1.2-0.7,2.8-0.6,4.4c0,1,0,1.9-0.2,2.6c-0.4,1.7,0.2,2.3,1.3,1.4l0.5-0.4l0.4,0.5
			c0.8,1-0.4,4.1-1.2,3.4c-0.4-0.3-0.7,0.2-0.7,1c0,0.5,0,0.6,0.3,0.5c0.4-0.1,0.3,0.7-0.2,2.2c-1.3,3.8-3.8,15.2-4.3,19.5
			c-0.6,5.3-1.7,9.5-3,11.2c-0.4,0.4-0.8,1.2-0.9,1.6l-0.3,0.8l0.9,1c1.3,1.3,1.4,1.9,0.6,4.5c-1.5,5.3-2.2,8.6-3,16.1
			c-0.9,8.3-1.3,10.9-2,13.6c-0.4,1.4-0.7,3-0.7,3.6c-0.1,0.6-0.3,2.1-0.4,3.4c-0.2,1.3-0.5,4-0.7,6c-0.2,2-0.5,4-0.7,4.5
			s-0.5,1.8-0.8,2.8c-0.3,1.1-0.7,2.9-1.1,4c-0.5,1.8-0.8,3.1-1.1,5.6c-1.6,10.7-2.2,12.8-5.3,19c-1.9,3.7-2.4,5.3-2.6,7.3l-0.1,1.5
			h0.9h0.9v-0.8c0-1,0.2-1.3,2.3-3.9c0.9-1.1,2.1-2.9,2.8-3.9c0.6-1,1.3-2,1.5-2.3c0.2-0.3,0.6-0.9,0.9-1.4c0.3-0.5,1.4-2,2.3-3.4
			c1.8-2.4,2.4-3.3,3.8-5.9c0.8-1.6,1-1.7,0.6-0.4c-0.3,1-0.9,2.1-1.8,3.6c-0.4,0.6-0.8,1.2-0.8,1.3c0,0.1-0.4,0.7-0.8,1.4
			c-0.5,0.7-1.2,1.9-1.7,2.7c-0.5,0.8-1.2,2-1.6,2.6c-0.9,1.3-2.7,4.4-2.7,4.7c0,0.1-0.3,0.8-0.8,1.5c-0.9,1.5-1.3,2.8-1.1,3.7
			L52,400h174h174v-82.8c0-82,0-82.8-0.3-82.8c-0.6,0-2,0.4-2,0.5c0,0.1-0.1,0.1-0.1,0.1c-0.1,0-0.5,0.1-1,0.3
			c-0.4,0.2-0.9,0.4-1,0.3c-0.1,0-0.5,0-0.9,0.2c-0.4,0.1-0.9,0.3-1.1,0.3c-0.2,0-0.9,0.2-1.4,0.3c-0.6,0.2-1.4,0.4-1.8,0.4
			c-0.9,0.2-3.3,0.9-3.8,1.2c-0.2,0.1-0.4,0.2-0.5,0.2c-0.2,0-2,0.7-3.6,1.5c-0.5,0.2-1.3,0.8-1.8,1.3c-0.5,0.5-1.1,0.9-1.3,1
			c-0.2,0.1-0.4,0.2-0.4,0.2c-0.1,0.1-2.4,1.2-2.6,1.2c-0.2,0-4,1.9-4.4,2.2c-0.2,0.2-1.1,0.6-2,0.9s-1.8,0.8-2.1,0.9
			c-0.3,0.2-0.9,0.4-1.4,0.6c-0.5,0.1-1.1,0.4-1.3,0.5c-3,1.6-7.7,1.8-8.4,0.4c-0.3-0.6-0.6-0.8-2.2-1.1c-1.6-0.3-1.8-0.5-4.7-3.3
			c-1.2-1.2-2.4-2.3-2.8-2.6c-0.7-0.5-1.1-1.1-1.9-2.5c-0.2-0.4-0.6-1-0.8-1.3l-0.4-0.4l-0.2,0.4c-0.5,0.9-1.9-0.2-4-3
			c-3.6-4.9-3.8-5.3-3.7-5.9c0.1-0.5-0.1-0.7-1.3-1.2c-1.1-0.4-1-0.4-0.9,0c0.1,0.5-0.3,0.6-1,0.3c-0.3-0.2-0.7-0.3-0.9-0.3
			c-0.2,0-0.9-0.3-1.6-0.6c-2-0.9-2.9-1.1-4.8-1l-1.7,0.1l0.6,0.4c1.2,0.8,1.9,1.1,2.9,1.1c1.2,0,2,0.3,3.4,1.3
			c0.5,0.4,1.2,0.8,1.4,1c0.2,0.2,0.6,0.5,0.9,0.8c0.6,0.7,1.3,1.1,1.6,0.8c0.3-0.3,0.7,0.2,0.7,0.9c0,0.5-0.1,0.6-0.3,0.6
			c-0.4,0,0.8,1.9,2.2,3.6c0.5,0.6,0.7,0.3,0.3-0.4c-0.5-1.1,0.3-0.7,0.9,0.4c0.2,0.3,0.7,1,1.2,1.5c1.4,1.5,2.9,3.9,2.8,4.5
			c0,0.3-0.1,0.3-0.7-0.3c-1.2-1.3-1.4-0.8-0.6,1.1c0.5,1.2,0.6,1.5,0.3,1.6c-0.3,0.2-1.2-0.8-2.6-2.9c-2.1-3.1-5.4-6.1-4.2-3.9
			c0.2,0.4,0.3,0.7,0.2,0.8c-0.2,0.1-2-1.8-2-2.1c0-0.1-0.2-0.4-0.4-0.6c-0.2-0.2-0.5-0.7-0.5-1c-0.1-0.3-0.2-0.7-0.3-0.9
			c-0.1-0.2-0.2-0.6-0.2-0.8c0-1.6-4.8-4.1-6.4-3.4c-0.9,0.4-1.2,0.3-2.2-1.2c-0.4-0.6-0.9-1.2-1.2-1.4c-0.2-0.2-0.7-0.5-1.1-0.9
			c-0.3-0.3-0.7-0.5-0.7-0.5c-0.2,0.2,0.4,0.9,0.8,1c0.5,0.2,0.9,0.9,0.8,1.8l0,0.9l-1.4,0l-1.4,0l-1.5,1.5
			c-1.4,1.4-2.3,2.6-3.5,4.7c-0.6,1.1-1.4,1.7-2.2,1.7c-0.7,0-0.8-0.2-0.3-0.8c0.2-0.3,0.4-0.6,0.4-0.7c0-0.1,0.3-0.5,0.7-0.7
			c1.4-1,1.6-2.3,0.4-2c-0.2,0-0.4,0.1-0.5,0.1c-0.3,0-0.8,1.1-0.6,1.6c0.1,0.3,0,0.5-0.2,0.8c-0.4,0.5-0.7,1-1,1.9
			c-0.1,0.4-0.4,0.9-0.5,1c-0.4,0.3-0.3,0.7,0.1,0.7c1.2,0-0.1,3.2-1.5,3.6c-0.3,0.1-0.5,0.3-0.5,0.5c0,0.2,0,0.7-0.1,1.2
			c-0.1,0.8-0.4,1.7-0.8,2.2c-0.1,0.1-0.5,0.9-0.8,1.7c-0.4,0.9-0.8,1.7-1.1,2c-0.9,0.9-1.2,1.6-1.2,2.5c0,0.5-0.2,1.5-0.5,2.3
			c-0.3,0.8-0.6,2-0.7,2.6c-0.4,2-1.5,2.6-1.5,0.8c0-0.9-0.5-0.6-1.1,0.6c-0.3,0.6-0.8,1.6-1.2,2.2c-0.3,0.6-0.7,1.4-0.7,1.6
			c-0.1,0.7-0.7,0.7-2.7,0c-0.8-0.3-2-0.6-2.7-0.9c-0.7-0.2-1.5-0.5-1.8-0.7c-0.3-0.2-0.7-0.3-0.8-0.3c-0.4,0-2.5-0.9-3.2-1.4
			c-0.9-0.6-1.9-1.2-2.2-1.4c-1.4-0.6-2.2-0.9-2.6-1c-0.7-0.1-2.1-1.3-2.2-1.7c-0.1-0.8-1.1-1.3-2.5-1.3c-1,0-1.9-0.4-1.3-0.5
			c0.1,0,0.4-0.1,0.6-0.2l0.3-0.1l-0.3-0.2c-0.2-0.1-0.9-0.7-1.7-1.3c-0.7-0.6-1.5-1.1-1.6-1.1c-0.5,0-1.3-0.5-1.3-0.9
			c0-0.2-0.1-0.6-0.2-1c-0.2-0.5-0.1-0.9,0.1-1.9c0.3-1.4,0.8-5.6,0.8-7.4c0-1.5,0.3-3.2,0.5-3.3c0.3-0.2,0.5-1,0.6-2.5
			c0.1-0.9,0.2-2.2,0.3-3c0.1-0.8,0.2-2.8,0.3-4.4c0.1-1.6,0.3-3.6,0.4-4.4c0.1-0.8,0.2-1.8,0.2-2.4c0-2.4,1.1-6.5,1.9-7.1
			c1.7-1.3,4.3-4.1,4.3-4.5c0-0.6,0.6-1.2,1.1-1.4c0.5-0.1,1.9-2.4,2.6-4.1c0.3-0.8,0.7-1.3,1-1.3c0.3,0,1.2-1.2,1.5-2
			c0.1-0.4,0.5-1,0.8-1.3c0.3-0.3,0.5-0.7,0.5-0.9c0-0.6,0.6-1.7,1.1-1.9c0.3-0.1,0.6-0.5,0.8-0.8c0.2-0.3,0.8-1.6,1.4-2.8
			c0.6-1.2,1.3-2.5,1.6-2.8c0.3-0.4,0.5-0.9,0.8-2c0.2-0.8,0.5-1.8,0.7-2.3c0.4-0.8,0.9-3.3,1.2-6.8c0.1-0.9,0.4-2.3,0.6-3.1
			c0.7-2.4,0.9-3.6,1.1-6.8c0.1-1.6,0.3-3.5,0.4-4.2c0.6-3.9-0.2-7.2-1.8-7.8c-0.2-0.1-0.5-0.3-0.7-0.6c-0.3-0.4-1.5-1.1-2.1-1.1
			c-0.4,0-1.7-0.7-2.7-1.5c-0.5-0.4-1-0.7-1.2-0.7c-0.6,0-0.7-0.3-0.7-14.2c0-8.6,0-14.7,0.1-17.1c0.2-3.8,0-10.5-0.4-13.8
			c-0.1-0.8-0.3-2.8-0.5-4.6c-0.3-3.2-1.1-5.7-2.3-7.4c-0.6-0.9-0.9-2-1.1-3.8c-0.2-2.1-0.9-5.1-1.3-5.9c-0.2-0.3-0.3-0.7-0.3-0.8
			c0-0.6-0.7-2.5-1-2.8c-0.2-0.1-0.6-0.9-1-1.8c-0.4-0.9-1-2-1.4-2.6c-0.4-0.6-0.8-1.3-1-1.6c-0.5-1.2-1.6-2.7-2-2.8
			c-0.6-0.2-1.2-1.1-1.6-2.2c-0.4-1.1-1.8-3.3-2.2-3.4c-0.4-0.1-1.1-1.1-1.5-2c-0.5-1.2-1.5-2.3-2.2-2.7c-0.9-0.4-2.9-2.3-3.2-2.9
			c-0.1-0.3-0.3-0.5-0.5-0.5c-0.2,0-0.7-0.4-1.2-0.9c-1.7-1.7-2.2-2.2-2.8-2.3c-0.7-0.2-1.6-1-1.6-1.5c0-0.2-0.1-0.4-0.2-0.5
			c-0.9-0.7-1.6-1.2-1.8-1.2c-1.1,0-2.9-2.2-3.1-3.9c-0.2-1.1-0.2-1.3-0.7-0.9c-0.3,0.3-0.3,0.3-0.5-0.4c-0.1-0.4-0.5-1.3-0.8-2.1
			c-0.4-0.8-0.7-1.5-0.7-1.7c0-0.2-0.1-0.4-0.3-0.7c-0.1-0.2-0.4-0.8-0.7-1.3c-0.3-0.7-0.5-1-0.8-1c-0.4-0.1-0.6-0.4-1.4-2.2
			c-0.5-1.1-0.3-0.9-3.5-3c-0.5-0.3-1.1-0.6-1.2-0.6c-0.1,0-0.4-0.2-0.7-0.3c-0.2-0.2-0.6-0.3-0.7-0.3c-0.3,0-0.6-0.5-0.7-1.1
			c0-0.2-0.2-0.4-0.5-0.5c-0.2-0.1-0.5-0.3-0.5-0.5c-0.1-0.1-0.2-0.3-0.3-0.3s-0.4-0.2-0.7-0.4c-0.4-0.3-0.7-0.4-1.2-0.4
			c-0.6,0-0.8-0.1-1.7-1.1c-0.6-0.6-1.2-1.1-1.3-1.1c-0.1,0-0.5-0.4-0.9-0.8c-0.8-0.9-1.3-1.1-3.7-1c-1.9,0.1-3.3,0.1-4.7,0
			c-0.6,0-1.3,0-1.5,0.1c-0.5,0.1-0.6,0.1-1.7-1.3c-0.4-0.5-0.6-0.6-0.8-0.5c-0.3,0.1-0.6-0.1-1.3-0.8c-1.1-1.1-1.2-1.1-3.5-1.3
			c-1-0.1-2.3-0.2-2.9-0.2C214.1,24.4,213.5,24.3,213.5,24.4 M219.6,33.7c-0.1,0.3-0.4,1.3-0.8,2.2c-0.4,0.9-0.8,1.9-0.8,2.2
			c-0.1,0.3-0.3,0.7-0.4,0.8c-0.2,0.2-0.3,0.4-0.3,0.6c0,0.3-0.4,0.8-0.6,0.6c-0.1-0.1,0-0.4,0.1-0.7c0.1-0.3,0.3-1,0.5-1.5
			C217.8,35.5,220,31.8,219.6,33.7 M203.8,43.5c-0.1,0.2-0.2-0.1-0.1-1l0-1.2l0.1,1C203.9,42.8,203.9,43.3,203.8,43.5 M232.4,49
			c-0.5,0.8-2.4,2.7-2.4,2.5c0-0.3,2.7-3.5,2.8-3.3C232.8,48.3,232.7,48.7,232.4,49 M231.5,48.3c0,0.3-0.8,1.1-0.8,0.8
			c0-0.1,0.1-0.4,0.3-0.6C231.4,48.1,231.5,48.1,231.5,48.3 M152.5,54.7c-0.9,1.2-2.2,2.9-2.2,3c0,0.1,0.5-0.3,1-0.9
			c0.6-0.6,1.1-1,1.2-1c0.1,0,0.2-0.2,0.3-0.5s0.2-0.6,0.3-0.8C153.5,53.7,153.2,53.8,152.5,54.7 M161.1,56.9l0.1,0.4l0.5-0.4
			c0.5-0.4,1-0.2,0.6,0.2c-0.2,0.3-0.1,0.5,0.4,0.5c0.7,0,1,2.5,0.7,4.7l-0.1,0.7l0.6-0.1c0.7-0.1,1,0.2,0.9,0.9
			c0,0.3,0.1,0.9,0.2,1.5c0.2,0.7,0.3,1.5,0.4,3.1l0,2.2l-0.7,1c-0.4,0.5-0.7,1.1-0.7,1.2c0,0.1-0.1,0.4-0.3,0.6
			c-0.4,0.4-0.2,0.8,0.4,0.8c0.4,0,0.4,0.1,0.3,0.4c-0.4,1.4-0.4,1.3,0.5,0.7c2.3-1.8,0.6,0.6-2.1,2.9c-1.2,1-1.6,1.4-3.5,3.8
			c-0.6,0.7-1.1,1.3-1.3,1.3c-0.4,0-4.3,4-5,5.1c-0.3,0.5-1,1.4-1.6,2.2c-1.6,2.1-1.9,2.6-2.3,3.9c-0.6,1.6-0.5,1.8,0.3,0.5
			c0.3-0.6,0.7-1,0.7-1c0.1,0.1-0.7,2.3-1.1,2.8c-0.2,0.3-0.5,0.9-0.7,1.4c-0.5,1.4-1.7,3.8-1.8,3.8c-0.3,0-0.2-0.7,0.3-2
			c0.2-0.7,0.6-2.3,0.9-3.6c0.3-1.3,0.6-2.6,0.8-3c0.2-0.4,0.3-0.8,0.3-0.9c0-0.2,0.3-1,0.6-1.8c0.3-0.8,0.7-1.9,0.8-2.5
			c0.1-0.6,0.3-1.2,0.4-1.4c0.1-0.3,0.1-0.3-0.2-0.1c-0.2,0.1-0.5,0.6-0.7,1.2c-0.3,0.7-0.7,1.3-1.5,2.2l-1.1,1.2l0-1.3
			c0-1.4,0.4-3.8,0.8-4.5c0.1-0.3,0.4-1.3,0.7-2.2c0.6-2.7,2.6-7,2.9-6.6c0.1,0.1,0.1,0.4,0,0.7c-0.2,0.9,0.1,0.8,0.7-0.1
			c0.2-0.4,0.4-0.7,0.4-0.8c0-0.2,0.6-0.7,0.9-0.8c0.1,0,0.4-0.1,0.6-0.2c0.5-0.2,0.6,0.3,0.3,0.9c-0.3,0.6-0.2,1,0.5,1.5l0.6,0.5
			l0.5-0.4c0.3-0.2,0.7-0.9,1-1.5c0.3-0.6,0.6-1.1,0.6-1.2s0.4-0.6,0.6-1.2c0.3-0.6,1-2,1.6-3c1.5-2.6,1.5-3.2,0-3.1
			c-0.1,0-0.2-0.1-0.1-0.4c0.1-0.4,0.1-0.4-0.3-0.3c-0.2,0.1-0.5,0-0.5-0.1c-0.1-0.1,0-0.2,0.1-0.2c0.1,0,0.1-0.2,0.1-0.6
			c-0.1-0.4,0-0.7,0.3-1.1c0.2-0.3,0.4-0.6,0.4-0.6c0-0.1,0.2-0.5,0.4-1c0.7-1.3,0.4-1.5-0.7-0.4c-0.8,0.8-1,0.8-1,0.3
			c0-0.2,0-0.7-0.1-1.1c-0.1-0.8,0.2-1.6,0.6-2c0.1-0.1,0.6-1,1-1.9C160.3,56.4,160.8,55.9,161.1,56.9 M162,58.8
			c0,0.1-0.2,0.5-0.5,0.9c-0.7,1-0.4,1.8,0.3,0.8c0.4-0.5,0.7-1.9,0.4-1.9C162.1,58.7,162,58.7,162,58.8 M148.2,60.4
			c-0.3,0.5-0.6,1.1-0.5,1.1c0,0,0.3-0.3,0.5-0.7C148.8,60.1,148.7,59.7,148.2,60.4 M160.3,61.8c-0.2,0.2-0.1,0.9,0,0.9
			c0.2,0,0.4-0.7,0.2-0.9C160.5,61.7,160.3,61.7,160.3,61.8 M203.7,65.8c0,0.1-1.2,0.6-1.8,0.8c-0.3,0.1-1.1,0.3-1.8,0.6
			c-3.8,1.6-5,2.1-6.1,2.5c-1.7,0.6-4.8,1.8-6.2,2.5c-1.9,0.9-2.8,0.4-1-0.5C190.9,69.4,203.7,65,203.7,65.8 M159,66.6
			c-0.1,0.1-0.2,0.3-0.1,0.4c0.2,0.2,0.6-0.1,0.6-0.4C159.5,66.3,159.3,66.3,159,66.6 M210,67c0.6,0.2,2.7,1.2,4.7,2.2
			c2,1,4.5,2.2,5.5,2.6l1.8,0.7l0.4-0.5c0.2-0.3,0.6-0.5,0.7-0.5c0.1,0,0.4-0.2,0.7-0.3c0.2-0.2,0.6-0.4,0.8-0.4
			c0.2-0.1,0.6-0.2,0.8-0.2c0.9-0.3,3,0.4,2.6,0.9c-0.2,0.2-0.2,0.3,0.2,0.4c0.3,0.1,0.4,0.2,0.3,0.5c-0.1,0.2-0.1,0.7-0.2,0.9
			c-0.1,0.7-0.8,2.3-1.3,2.7c-0.2,0.2-0.5,0.7-0.7,1.1c-0.4,0.7-2.2,2.8-4.8,5.5c-4.3,4.4-17.4,6.3-25,3.8c-1.8-0.6-1.6-0.1,0.3,0.9
			c2.8,1.4,9.6,1.9,13.3,1c5.9-1.5,10.6-3.5,11.3-4.8c0.6-1.1,5.6-5.8,6.2-5.8c0.3,0,0.3,0.7,0.1,1.2c-0.8,1.8-0.8,1.9-0.6,2.2
			c0.1,0.2,0.1,0.3-0.2,0.7c-0.4,0.5-0.5,0.8-0.2,0.8c0.3,0,0.2,0.4-0.3,1c-0.4,0.4-0.6,0.5-0.9,0.5c-0.2-0.1-0.5,0-0.7,0.1
			c-0.2,0.1-0.4,0.1-0.6,0c-0.3-0.2-0.4-0.1-0.8,0.2c-0.3,0.2-0.8,0.4-1.1,0.5c-0.4,0.1-0.8,0.3-1,0.5c-0.2,0.2-0.7,0.6-1.1,0.9
			c-0.5,0.4-0.7,0.7-0.6,0.9c0.1,0.2-0.2,0.5-0.7,1c-0.4,0.4-0.7,0.8-0.7,0.9c0,0.1-0.2,0.3-0.4,0.4c-0.3,0.1-0.4,0.2-0.3,0.4
			c0.3,0.3,2.6-0.3,3.2-0.9c0.3-0.3,1.2-0.9,2-1.4c0.8-0.5,1.8-1.1,2.2-1.4c0.4-0.3,0.9-0.7,1.2-0.9c0.3-0.2,0.8-0.7,1.2-1.1
			c0.4-0.4,0.8-0.8,0.9-0.8c0.6,0,1.3-1.3,1.6-2.7c0.1-0.5,0.3-0.9,0.7-1.2c0.3-0.3,0.7-0.8,0.8-1.2c0.2-0.4,0.4-1,0.5-1.3
			c0.3-0.6,0.7-1.1,1.8-1.6c0.4-0.2,0.9-0.6,1.1-1c0.3-0.5,0.5-0.6,0.8-0.5c0.2,0.1,0.5,0,0.8-0.2c0.4-0.3,1-0.3,2.2-0.2
			c0.4,0,1.1,1.3,1.3,2.3c0.1,0.5,0.4,1.3,0.7,1.8c0.6,1.2,0.9,2.5,0.8,2.8c-0.1,0.1-0.1,1.2-0.2,2.3c-0.1,2.4-0.3,1.7,2.5,6.1
			c1,1.5,2.9,4.6,4.4,7c3.1,5.1,5.7,9,7.4,11.4c2.2,3.2,2.8,4.1,3.2,5.2c0.2,0.5,0.7,1.9,1.2,3.1c1.9,4.7,3,8.6,2.4,8
			c-0.2-0.2-0.3-0.4-0.3-0.5c0-0.2-0.7-1.9-0.9-2.2c-0.1-0.2-0.2-0.2-0.3,0s-0.2,0.1-0.4,0c-0.3-0.3-0.4-0.1-0.1,0.5
			c1.4,2.7,2.5,6.9,3,11.6c0.2,1.7,0.3,2.1,0.6,1.8c0.3-0.2,0.6,0.3,0.6,0.9v0.5l0.3-0.4c0.5-0.7,0.6-0.2,0.6,2.3c0,2-0.1,2.4-0.4,3
			c-0.4,0.7-0.3,1.7,0,4.4c0.3,2-0.1,6.9-0.7,9.5c-0.6,2.4-0.6,2.9,0.1,4.4c0.5,1.1,0.7,1.1,1.3,0.5l0.5-0.5l0.1-3.4
			c0.2-6.9,0.8-11.2,1.6-11.1c0.2,0,0.3,0.3,0.3,0.8c0,0.4,0.1,0.8,0.2,0.9c0.3,0.2,0.7,1.3,0.7,2c0,0.9-0.2,0.9-0.5,0
			c-0.1-0.4-0.2-0.6-0.3-0.6c-0.2,0.2-0.5,4.6-0.3,4.6c0.3,0,0.5-0.4,0.6-1.3c0.1-0.4,0.3-0.9,0.4-1.1c0.3-0.4,0.3-0.7,0.3-2.4
			c0-2.6,0.3-3.7,0.5-1.9c0,0.4,0.2,1.4,0.3,2.2c0.5,3.7-0.2,7.5-2.1,10.3c-1,1.5-1.5,2.6-1.2,2.9c0.1,0.1,0.2,0,0.3-0.3
			c0.1-0.2,0.2-0.4,0.3-0.4c0.1,0,0.5-0.3,0.8-0.7c0.7-0.7,1.1-0.8,1.1-0.4c0,1.4,2.3-3,2.7-5.1c0.1-0.5,0.2-1.4,0.3-2
			c0.1-0.8,0.1-2.2,0-5.5c-0.3-5.6,0-8.7,0.7-8.5c0.3,0.1,0.6-0.5,1-2c0.2-0.6,0.5-1.1,0.8-1.4c0.4-0.4,0.5-0.6,0.4-0.9
			c-0.1-0.4,0.5-1.9,0.8-1.9c0.4,0-0.2,6.3-0.8,9.1c-0.6,2.5-0.7,3.5-0.7,4.7c0,0.7-0.1,1.2-0.1,1.3c-0.2,0.1-0.4-0.3-0.4-0.8
			c0-0.5-0.2-0.9-0.3-0.9c-0.5,0-0.8,2.6-0.6,5.2c0.2,2.9-0.1,4-2.1,8.2c-0.2,0.5-0.7,1.7-1.1,2.8c-0.4,1.1-0.8,2.1-0.9,2.1
			c-0.3,0.2-2.1-0.8-2.3-1.2c-0.1-0.3-0.4-0.4-2.2-0.4c-1.5,0-2.3,0.6-2.3,1.6c0,0.8,0.4,0.9,2.5,0.7l0.9-0.1l0.1,0.6
			c0,0.5,0.1,0.6,0.4,0.7c0.6,0.1,0.8,0.8,0.8,2.3c0,0.8,0,1.3-0.1,1.3c0,0-0.3,0.2-0.5,0.6c-0.2,0.4-0.7,1.5-1.2,2.4
			c-0.5,0.9-0.9,1.8-0.9,1.9c0,0.2-0.1,0.3-0.2,0.4c-0.1,0.1-0.1,0.4-0.1,0.7c0.1,0.8-0.7,1.9-2.7,3.7c-1.5,1.4-1.7,2.1-0.3,1.2
			c4.1-2.7,7.9-8.2,8.7-12.6c0.8-4.3,1.8-7.7,3-10.1c0.3-0.6,0.5-1.5,0.6-1.9c0.1-1.1,0.4-1.1,0.5,0c0,0.6,0,1.1-0.3,1.6
			c-0.2,0.4-0.4,1-0.4,1.3c-0.1,0.3-0.3,1.1-0.6,1.6c-0.4,0.9-0.5,1.4-0.6,3c-0.2,2.4-0.7,4.9-1.3,6.3c-0.2,0.6-0.5,1.7-0.6,2.4
			c-0.3,2.2-1.6,4.6-4.3,7.3c-3.1,3.2-4.2,4.8-5.6,8c-0.4,1-1.1,2.6-1.6,3.6c-0.5,1-1,2.4-1.2,3c-0.2,0.7-0.4,1.4-0.6,1.5
			c-0.4,0.4-0.9,4.8-1,8.7c-0.2,4.9,0.6,9.1,2.2,11.9c0.9,1.6,2.1,4.6,1.9,4.8c-0.2,0.2-1.7-1.3-2.1-2.1c-1.1-2.5-1.5-3.1-1.8-2.7
			c-0.4,0.6,0.1,3.4,0.8,4.2c0.3,0.3,0.2,0.8-0.1,0.8c-0.1,0-0.5,0.4-0.8,0.8c-0.7,1-3.2,3.5-3.6,3.7c-0.2,0.1-0.9,1-1.6,2.1
			s-1.4,2-1.6,2.1c-0.3,0.1-0.5,0.5-0.8,1.9c-0.6,2.3-1.8,4.1-4.2,6.2c-0.3,0.3-0.7,0.8-0.8,1.2c-0.4,1-1.6,2.7-2.6,3.5
			c-0.5,0.4-1.1,1-1.3,1.3c-0.5,0.6-4.5,4.5-6.1,5.8c-1,0.9-3,1.9-3.3,1.7c-0.4-0.2,0.4-1.2,1.5-1.7c0.9-0.4,2.6-2,2.6-2.4
			c0-0.3,1.3-2.2,2.2-3.2c1.5-1.7,2.1-2.6,2.9-4.4c1.1-2.3,1.9-4.3,2-4.9c0.1-0.3,0.4-1.1,0.7-1.7c1.7-3.8,6-25.5,5.1-25.5
			c-0.1,0-0.3,0.5-0.5,1.1c-0.5,1.4-0.6,1.6-1.2,1.5c-0.4-0.1-0.5,0-0.7,0.3c-0.1,0.2-0.2,0.4-0.3,0.3c-0.3-0.1-2.1,4.7-2.1,5.6
			c0,0.2-0.1,0.5-0.2,0.7c-0.1,0.2-0.2,0.8-0.2,1.4c-0.1,2.2-0.3,3.1-0.5,4.5c-0.4,1.9-1,4.4-1.3,4.9c-0.1,0.3-0.2,0.6-0.2,0.7
			c0,0.6-1.3,2.8-2.2,3.7c-0.3,0.3-0.5,0.7-0.7,1c-0.1,0.4-0.3,0.6-0.5,0.6c-0.2,0-0.4,0.2-0.6,0.6c-0.1,0.3-0.3,0.6-0.4,0.6
			c-0.4,0-1.2,1-1.2,1.5c0,0.5-1.2,3-1.7,3.5c-0.1,0.2-0.6,0.6-0.9,1.1c-0.7,0.9-1,1.1-1.7,1.8c-0.3,0.2-0.6,0.7-0.8,1
			c-0.2,0.3-0.4,0.7-0.6,0.8c-0.4,0.2-1.3,1.6-1.3,1.9c0,0.5-1.8,2.2-2.9,2.8c-0.3,0.1-0.6,0.4-0.8,0.6c-0.7,0.8-3.3,1.5-3.9,1
			c-0.2-0.2-0.3-0.2-0.3,0c-0.1,0.3-1.3,0.3-1.7-0.1c-1.1-0.8-3.1-1-2.9-0.2c0.1,0.7-0.5,0.9-1.4,0.6c-0.3-0.1-0.6-0.2-0.7-0.2
			c-0.3,0-0.2,0.9,0.1,1.2c0.2,0.1,0.2,0.3,0.1,0.4c-0.4,0.4-0.2,0.9,0.9,1.9c1.2,1,1.3,1.5,0.4,1c-0.7-0.3-0.7-0.2,0.1,0.6
			c0.7,0.8,0.7,1,0.1,0.8c-0.6-0.1-0.6,0.1-0.2,0.8c0.5,0.8,0,1.2-0.9,0.6c-0.3-0.2-0.4-0.2-0.5-0.1c-0.2,0.3-0.6,0-0.8-0.5
			c-0.2-0.7-0.8-0.6-0.7,0.1c0,0.4,0,0.5-0.3,0.5c-0.4,0-0.4,0.2-0.1,0.5c0.3,0.2,0.9,1.4,0.9,1.7c0,0.1-0.1,0.1-0.4-0.1
			c-0.5-0.4-1.4-1.1-1.5-1.1c-0.1,0-0.1,0.3,0,0.6l0.1,0.6l-0.4-0.5c-0.2-0.3-0.4-0.5-0.5-0.5c-0.2,0-0.2,0.4,0.1,0.6
			c0.1,0.1,0.3,0.4,0.3,0.7c0.1,0.3,0.3,0.7,0.6,1c0.5,0.5,0.5,1,0,1c-0.3,0-1.5-1-1.5-1.4c0-0.4-0.5-1.3-0.7-1.3
			c-0.1,0-0.2,0.1-0.2,0.3c0,0.4-0.2,0.4-0.7-0.1c-0.7-0.8-1.3-0.4-0.6,0.4c0.4,0.5,0.5,0.5,1,0.4c0.5-0.1,0.6-0.1,0.6,0.3
			c0,0.2,0.1,0.4,0.2,0.4c0.1,0,0.2,0.2,0.2,0.4s0.1,0.5,0.2,0.6c0.2,0.3-0.3,0.1-1.1-0.3c-0.5-0.3-0.8-0.2-0.5,0.1
			c0.3,0.3,0.3,0.8,0,0.8c-0.1,0-0.2,0.4-0.2,0.7c0,0.4-0.1,0.7-0.2,0.7c-0.3,0.1-0.5-0.5-0.2-0.8c0.2-0.3,0.2-0.4-0.1-0.6
			c-0.2-0.2-0.3-0.2-0.4-0.1c-0.2,0.4-0.7,0.2-1-0.4c-0.1-0.3-0.3-0.6-0.4-0.6c-0.3,0-0.4,0.4-0.2,0.8c0.1,0.3,0.1,0.4,0,0.5
			c-0.1,0.1-0.2,0.4-0.2,0.8l0,0.6l-0.3-0.5c-0.2-0.3-0.4-0.8-0.4-1.1c-0.1-0.7-0.3-0.8-0.6-0.2c-0.3,0.6-0.6,0.7-0.7,0.1
			c-0.1-0.7-0.4-0.6-0.8,0.3c-0.5,1.1-1.5,1.7-1.5,0.8c0-0.4-0.9-1.2-1.2-1.1c-0.2,0-0.4,0.1-0.6,0.2c-0.2,0.1-0.3,0-0.3-0.2
			c0-0.1-0.1-0.3-0.2-0.3c-0.3,0-0.5,0.6-0.4,0.8c0.1,0.1-0.1,0.2-0.3,0.3c-0.5,0.1-1.4-0.6-1.4-1.2c0-0.5-0.4-0.4-0.5,0.2
			c0,0.3-0.1,0.4-0.3,0.4c-0.2-0.1-0.5,0.1-0.7,0.3c-0.4,0.3-0.5,0.3-0.7,0.1c-0.2-0.3-0.4-0.3-1.1,0c-0.2,0.1-0.3,0-0.3-0.1
			c0-0.3-0.9-1.2-1.1-1c-0.1,0.1-0.1,0.3,0,0.3c0.3,0.4-0.1,0.8-0.7,0.8c-0.6,0-0.6,0-0.6,0.4c0,0.2-0.1,0.6-0.3,0.8
			c-0.1,0.2-0.3,0.5-0.4,0.7c-0.2,0.5-0.4,0.4-0.8-0.4c-0.2-0.4-0.4-0.7-0.4-0.7c-0.1,0-0.2-0.3-0.3-0.6l-0.2-0.5l-0.3,0.5
			c-0.4,0.5-0.6,0.6-1,0.2c-0.3-0.3-0.3-0.3-0.6,0.1c-0.3,0.3-0.3,0.3-0.6,0.1c-0.6-0.4-0.5-1,0.1-0.8c0.6,0.1,0.9-0.4,0.5-0.9
			c-0.1-0.2-0.2-0.4-0.2-0.6c0.1-0.5-0.2-0.7-0.6-0.3c-0.5,0.5-3.3,0.5-3.3,0.1c0-0.2-0.1-0.4-0.3-0.4c-0.2-0.1-0.2-0.2-0.2-0.5
			c0.1-0.5-0.2-1.4-0.6-1.6c-0.4-0.2-0.3-0.2-0.6,0.4c-0.2,0.6-1.4,1.4-1.4,1c0-0.1,0.1-0.3,0.2-0.3c0.2,0,1-1.4,1-1.7
			c0-0.1,0.2-0.4,0.4-0.6c0.2-0.2,0.4-0.4,0.3-0.5c-0.1-0.1-0.2,0-0.4,0.2c-0.7,0.7-1.1,0.1-0.6-1.1c0.2-0.6-0.4-1-0.8-0.5
			c-0.4,0.5-0.7,0.6-1.1,0.3c-0.2-0.1-0.1-0.2,0.2-0.6c0.4-0.3,0.4-0.4,0.2-0.4c-0.2,0-0.4,0.1-0.5,0.3c-0.4,0.6-1,0.8-1.1,0.4
			c-0.1-0.4-0.4-0.2-1.6,0.9c-0.5,0.5-1.2,0.6-1.2,0.2c0-0.1,0.3-0.5,0.7-0.8c0.4-0.3,0.7-0.7,0.8-0.9c0.1-0.3,0.3-0.4,0.6-0.4
			c0.3,0,0.4-0.1,0.4-0.2c-0.1-0.1,0.1-0.2,0.5-0.2c0.6,0,0.8-0.2,0.3-0.3c-0.4-0.2-0.3-0.7,0.4-1.3c0.6-0.5,0.9-1.1,0.5-0.9
			c-0.1,0-0.5,0.1-0.8,0.2l-0.5,0.1v-0.9c0-1.1-0.3-1.2-0.7-0.3c-0.3,0.7-0.8,0.8-0.8,0.2c0-0.4,0.2-0.7,0.7-0.8
			c0.2,0,0.5-0.3,0.6-0.7c0.2-0.4,0.5-0.7,0.8-0.7c1-0.2,0.2-1.4-1.4-2.1c-0.3-0.2-0.7-0.4-0.7-0.6c-0.1-0.4-0.6-0.6-0.8-0.2
			c-0.1,0.2-0.2,0.2-0.4,0.1c-0.3-0.3-0.3-0.5,0-0.5c0.1,0,0.2-0.1,0.2-0.2c0-0.1-0.1-0.2-0.3-0.2c-0.2,0-0.3-0.1-0.2-0.2
			c0.2-0.4-0.1-0.8-0.3-0.6c-0.6,0.5-1.1-0.2-0.7-1c0.6-1,0.2-2.1-0.9-3.3c-0.3-0.3-0.5-0.6-0.5-0.7c0-0.1-0.1-0.2-0.2-0.4
			c-0.2-0.2-0.8-2-1.1-3.6c-0.1-0.4-0.2-1.1-0.2-1.7c0-0.6-0.1-1.4-0.3-1.8c-1.3-4.3-0.2-7.9,2.5-7.8c1.2,0,4.6,1.9,6.1,3.4
			c0.9,0.9,1.1,1.1,1.6,1.1c0.6,0,0.6-0.4,0.1-0.7c-0.2-0.1-1-1.7-1-1.9c0,0,0.2,0,0.5,0c0.9,0.2,6,0.6,8,0.6c1.1,0,2.4,0.1,2.9,0.2
			c0.5,0.1,2.2,0.3,3.8,0.4s3.7,0.4,4.7,0.5c1,0.1,2.2,0.2,2.6,0.1c1.4-0.2,7.7-0.2,9.1,0c1.3,0.2,2,0.3,3.4,0.3
			c1,0,1.2,0.4,1.1,1.3c0,0.4-0.1,0.9-0.1,1c0,0.1-0.3,0.5-0.7,0.8c-0.4,0.4-0.7,0.8-0.7,1c0,0.2-0.1,0.4-0.4,0.5
			c-0.7,0.2-1,0-1.2-0.6c-0.2-0.6-0.2-0.6-0.5-0.4c-0.2,0.1-0.5,0.2-0.6,0.2c-0.2,0-0.5,0.2-0.8,0.3c-0.3,0.2-0.6,0.3-0.7,0.3
			c-0.1,0-0.4,0-0.5,0.1c-0.3,0.2-2.2,0.3-2.2,0.1c0-0.3-0.5-0.3-1,0.1c-0.6,0.5-1,0.4-1-0.2c-0.1-0.6-0.6-0.7-1-0.2
			c-0.6,0.7-2.2,0.6-2.4-0.1c-0.1-0.4-0.4-0.4-0.4,0c0,0.4-0.2,0.5-0.8,0.6c-0.2,0-0.7,0.1-1,0.2c-0.3,0.1-0.6,0-0.6-0.1
			c-0.1-0.1-0.5-0.1-1.1-0.1c-0.6,0.1-1.3,0-1.8-0.1c-0.6-0.1-0.9-0.2-1.2,0c-0.2,0.1-0.4,0.1-0.4,0.1c-0.1-0.1-0.5-0.1-1.1-0.1
			c-1.7,0-3.3-0.3-3.5-0.4c-0.1-0.1-0.5-0.2-0.9-0.2c-1.7-0.1-2-0.1-2.2-0.4c-0.2-0.3-1.1-0.7-1.2-0.6c-0.6,0.6,3.3,2.8,5.1,2.8
			c0.6,0,1.5,0.1,2.1,0.2c0.6,0.1,2.1,0.3,3.5,0.4c1.3,0.1,2.9,0.3,3.5,0.4c5.6,0.8,16.2-0.7,17.5-2.5c0.1-0.2,0.6-0.4,1-0.6
			c0.5-0.2,1.3-0.7,2-1.4c1.6-1.5,6.5-4,8-4.1c2.1-0.2,2.6,0.1,5.2,2.9c1.6,1.7,2.4-0.5,1.8-4.7c-0.4-3-4.2-5.5-9.2-6.3
			c-1.5-0.2-5-1.7-6.3-2.6c-0.4-0.3-0.8-0.5-0.9-0.5c-0.2,0-2.8-1.7-3.4-2.3c-0.2-0.2-0.6-0.4-0.9-0.5c-0.2-0.1-0.9-0.4-1.5-0.8
			c-0.8-0.5-1.3-0.7-1.9-0.8c-0.5-0.1-1.1-0.2-1.5-0.3c-0.3-0.1-0.8-0.3-1-0.3c-0.5-0.1-1.5-1.5-1.2-1.8c0.3-0.3,0.2-0.5-0.1-0.4
			c-0.4,0.1-0.6-0.1-0.4-0.6c0.1-0.4,0.9-0.5,1.3-0.1c0.2,0.2,0.2,0.2,0.3,0.1c0.1-0.1,0.4-0.2,0.7-0.3c0.3,0,0.9-0.2,1.4-0.4
			c1.2-0.4,1.8-0.6,3.3-0.9c4.3-0.9,7.6-4.1,8.5-8.2c0.6-2.7,1.4-2.8,3.2-0.4c2.6,3.5,4.2,4.5,2.4,1.6c-2.2-3.6-7.5-9-9.8-9.9
			c-0.5-0.2-1.2-0.6-1.7-0.9c-2-1.3-3.6-1.3-3.8,0.2c-0.1,0.4,0,0.7,0,0.7c0.1,0,0.1,0.2,0.1,0.3c-0.2,0.7,1.2,1.2,2,0.8
			c0.4-0.2,1.8-0.2,2.1,0.1c0.1,0.1,0.6,0.4,1,0.6c1.1,0.6,1.7,1.6,2.6,4.3c0.5,1.8,0.5,2.1-0.1,4.2c-0.6,1.9-2.6,3.8-3,2.9
			c-0.1-0.4-0.5-0.3-0.4,0.1c0,0.2,0,0.3-0.1,0.3s-0.4-0.1-0.6-0.3c-0.5-0.4-0.8-0.4-0.8-0.1c0,0.2-1,0.3-4.1,0.4
			c-0.8,0-1.2,0.1-2.2,0.7c-0.7,0.4-1.3,0.7-1.5,0.7c-0.3,0-1.8,0.5-2,0.7c-0.1,0.1-0.3,0.1-0.6,0.1s-0.5,0.1-0.6,0.2
			c-0.3,0.4-1.4,0.8-2.5,0.8c-1.5,0-1.9-0.2-0.8-0.5c0.6-0.2,0.8-0.3,0.8-0.5c0-0.2,0.2-0.4,0.3-0.6c1.2-1.1-0.5-3.2-1.8-2.3
			c-0.5,0.4-0.6,0.4-1.2,0.1c-0.7-0.3-4.9-0.2-5.4,0.2c-0.4,0.3-0.7,0.3-1.3,0c-0.3-0.1-0.6-0.2-0.7-0.2c-0.2,0.1-1.1-0.5-2.3-1.4
			c-1.5-1.2-3.3-2.1-6.2-2.9c-1.2-0.4-1.5-0.9-1.4-2.6c0.4-3.8,2.6-7.8,5-9.2c0.8-0.5,1.3-1,1-1.3c-0.3-0.3-4.8,2.6-6.4,4
			c-0.9,0.8-2.7,2.7-3.3,3.6c-0.1,0.2-1.1,1.3-2.2,2.4c-1.8,2-3.4,3.8-4.2,5.1c-0.2,0.3-0.7,1-1.1,1.5c-1.1,1.4-0.7,1.3,0.6-0.3
			c1.5-1.7,5.3-5.4,7-6.9c0.7-0.6,1.5-1.4,1.7-1.8c0.9-1.5,1.4-1.4,1.1,0.4c-0.3,2.3-0.3,4.4,0.2,5.3c0.9,1.8,3.5,4.2,5.9,5.4
			c0.7,0.3,1.8,1.1,2.6,1.6s1.4,0.9,1.5,0.9s0.4,0.1,0.7,0.2c0.3,0.1,1.3,0.4,2.3,0.5c2.3,0.3,2.2,0.3,2.2,0.7
			c0,0.8-1.1,1.6-1.5,1.2c-0.2-0.2-0.2-0.2-0.5,0c-0.3,0.3-1,0.5-1.9,0.5c-0.3,0-0.7,0.1-0.8,0.2c-0.1,0.1-0.5,0.1-0.8,0.1
			c-1,0-3.2,0.7-4.3,1.2c-0.5,0.3-1.2,0.6-1.5,0.6c-0.3,0.1-0.8,0.5-1.3,0.9c-0.6,0.6-0.9,0.8-1.3,0.8c-0.3,0-1.4,0.4-2.5,0.9
			c-1.4,0.7-2.4,1-3.3,1.2c-0.7,0.1-1.9,0.4-2.5,0.6s-1.5,0.4-1.9,0.5c-0.4,0.1-0.9,0.3-1.1,0.4c-0.2,0.1-0.5,0.3-0.6,0.3
			s-0.6,0.2-1,0.5c-0.4,0.3-1.1,0.7-1.5,0.9c-0.8,0.3-1.6,1-1.6,1.4c0,0.1-0.3,0.6-0.6,1.1c-0.6,1-0.9,2.4-1,4.7
			c0,0.6-0.1,1.6-0.3,2.1c-0.2,0.9-0.2,2.2,0.2,4.1c0.2,1.5,0.2,1.5-0.5,0.9c-0.5-0.4-0.7-0.4-0.7-0.1c0,0.1-0.1,0.3-0.2,0.4
			c-0.2,0.1-0.2,0.4-0.2,1.7c0,1.6-0.4,2-0.7,0.6c-0.1-0.2-0.2-0.4-0.3-0.3c-0.2,0.1,0.2,1.1,1.3,3.5c0.4,0.8,0.7,1.6,0.7,1.8
			c0,0.2,0.2,0.7,0.4,1.1c0.2,0.4,0.4,0.8,0.4,0.9c0,0.6,1.5,2.8,3.2,4.7c0.9,1,1,1.1,1,1.8c0,0.6,0,0.7,0.5,1
			c0.5,0.3,0.6,0.7,0.2,0.9c-0.3,0.1-0.7-0.4-0.7-0.7c0-0.2-0.2-0.6-0.7-1c-1.1-1-2.6-2.7-3.8-4.2c-0.8-0.9-1.6-2-1.9-2.4
			c-0.3-0.4-0.9-1.3-1.3-2.1s-1.1-1.9-1.4-2.4c-0.9-1.3-1.7-2.9-2.1-4.1c-0.2-0.6-0.8-1.7-1.4-2.5s-1.4-2.1-1.7-2.7
			c-0.3-0.7-0.9-1.5-1.2-1.9c-1.9-1.9-4-6-3.2-6c0.2,0,1.4,1.7,2.1,3.2c1.4,2.8,2.1,3.6,2.2,2.7c0.1-0.5-1.6-3.7-2.9-5.7
			c-0.6-0.9-1.2-1.8-1.3-2.1c-0.1-0.3-0.6-0.8-1-1.2c-0.4-0.4-0.8-1-1-1.4c-0.3-0.8-0.6-0.7-0.6,0.2c0,0.8-0.3,0.9-0.9,0.3
			c-0.5-0.5-0.6-0.6-0.4-0.9c0.3-0.7,0.5-2.4,0.4-2.7c-0.1-0.2-0.4,0.2-1,1.4c-2.1,4.2-2.4,2.7-0.5-2.3c0.4-1.1,1-2.8,1.2-3.8
			c0.7-2.7,1.2-2.9,1.2-0.3c0,1.7,0.3,3.3,0.6,3.7c0.1,0.1,0.3,0.4,0.4,0.7c0.2,0.4,0.2,0.4,0.1-0.1c-0.3-1.2-0.3-3.5-0.2-6
			c0.2-3.6,0-7.1-0.9-15.4c-0.2-2.2-1.6-6.6-3-9.8c-0.5-1.1-1.1-2.8-1.5-3.8c-0.7-2.2-1.1-2.9-2.9-5.5c-2.9-4.1-3.4-6.8-2.8-13.6
			c0.4-4.3,0.4-4.7-0.2-6.4c-0.3-0.8-0.5-1.5-0.4-1.5c0.1-0.2,0.4-0.2,0.7,0.1c0.2,0.3,0.2,0.3,0.2-0.1c0-0.9,0.8-0.3,1.2,0.9
			c0.4,0.9,0.4,6.6,0.1,8.3c-0.2,1.2-0.2,1.3,0.3,0.9c0.3-0.2,0.4-0.7,0.7-2.4c0.2-1.2,0.5-2.4,0.6-2.7c0.5-1-0.5-4.2-1.9-5.7
			c-1.4-1.5-2.5-3.6-3.2-6.1c-0.4-1.5-0.7-11.2-0.3-12.1c0.1-0.2,0.1,0.1,0.1,0.8c0,0.6,0.1,1.6,0.2,2.1c0.1,0.5,0.3,1.5,0.4,2.2
			c0.3,2.1,1,6.1,1.2,6.6c0.1,0.2,0.2,0.9,0.3,1.4c0.2,1.3,1,3.1,1.8,4.2c1.2,1.6,1.5,2.2,2.1,3.9c0.5,1.6,0.6,1.7,0.8,1.3
			c0.1-0.2,0.4-0.6,0.7-0.9c0.3-0.3,0.5-0.8,0.6-1.3c0.1-0.5,0.4-1.2,0.7-1.6c0.5-0.7,0.5-0.8,0.4-2.3l-0.1-1.6l0.4,0.7
			c0.6,1.2,0.7,1.4,1.1,2.3c0.5,1.3,0.7,1.6,1.4,1.7c0.3,0.1,0.6,0.2,0.6,0.4c0.1,0.5,1,1.1,1.3,0.8c0.3-0.4,1.5,0.1,2.3,0.8
			c0.5,0.4,0.7,0.6,1,0.5c0.3-0.1,0.5,0,0.7,0.3l0.4,0.4l-0.3,0.5c-0.5,0.6-0.4,0.7,0.6,0.4c0.9-0.3,1.3-0.2,1.4,0.4
			c0.1,0.6,0,0.6,1.7,0.1c1.7-0.5,1.8-0.5,4.9,0.7c1.3,0.5,2.8,1,3.3,1.1c0.5,0.1,1,0.2,1.2,0.3c0.4,0.2,0.6,0.2,0.6,0
			c0-0.2-1.8-1-3.3-1.5c-4.4-1.3-4.8-2.7-1.4-5c3.7-2.5,4.5-2.4,3.8,0.5c-0.7,2.5,0.5,5.2,2.4,5.6c2.1,0.4,7.1,0.4,8.1-0.1
			c0.9-0.4,2.2-0.5,2.5-0.1c0.3,0.3,0.3,0.3,1.1,0c0.7-0.3,1.1-0.3,2.4-0.2c1,0.1,1.8,0,2-0.1c0.3-0.1,0.6-0.1,0.9,0
			c0.7,0.3,0.4-0.9-0.6-2.3c-0.6-0.8-0.3-0.9,0.5-0.4c0.4,0.3,0.9,0.8,1.1,1.3c0.6,1.2,0.8,1.3,1.4,1c0.4-0.2,0.7-0.3,1.4-0.2
			c1,0.1,1.2,0,2.5-1.7c0.5-0.6,0.5-0.7,0.9-0.4c1.3,1.2,0.4-3.2-1.4-6.8c-1.3-2.6-1.8-3.2-2.6-2.9c-0.5,0.1-0.8,0.1-1.5-0.1
			c-0.5-0.2-1.1-0.3-1.2-0.2c-0.1,0-0.4,0-0.7-0.1c-0.6-0.2-0.7-0.1-0.4,0.4c0.3,0.5,0,1.1-0.5,1.1c-0.2,0-0.3,0.1-0.3,0.2
			c0,0.1-0.1,0.1-0.3,0.1c-0.2-0.1-0.4,0-0.5,0.3c-0.2,0.5-0.6,0.4-1-0.1c-0.4-0.5-0.7-0.5-0.7-0.1c0,0.4-0.1,0.4-0.8,0
			c-0.5-0.3-1.7-0.6-2-0.6c-0.1,0-0.6-0.1-1.2-0.3c-2.3-0.7-5.7-1.1-8.7-1.2c-1.6-0.1-3.3-0.2-3.8-0.3c-0.9-0.2-3.2-0.2-4.5-0.1
			c-1.4,0.1-2.2,0.1-2.8-0.1c-0.4-0.2-0.7-0.2-0.9-0.1c-0.2,0.1-0.4,0.1-0.8-0.1c-0.3-0.2-0.6-0.3-0.8-0.3c-0.3,0-0.3-0.1-0.3-0.2
			c0.1-0.1,0-0.3-0.1-0.3s-0.2,0.1-0.2,0.2c0,0.2-0.1,0.3-0.3,0.2c-0.2-0.1-0.2-0.2-0.1-0.5c0.1-0.2,0.1-0.5,0.1-0.8
			c0-0.3,0.2-0.5,0.7-0.7c0.4-0.2,0.9-0.5,1-0.7c0.2-0.2,0.5-0.6,0.8-0.7c0.3-0.1,0.6-0.4,0.6-0.6c0.1-0.2,0.4-0.5,0.7-0.7l0.5-0.3
			l-0.1,0.5l-0.1,0.5l0.4-0.4c0.2-0.2,0.5-0.4,0.6-0.4c0.1,0,0.3-0.1,0.3-0.3c0-0.2,0.3-0.4,0.5-0.4c0.2-0.1,1.1-0.3,1.9-0.5
			c4.7-1.3,11.9-0.2,18.4,3c1.3,0.7,2.9,1.4,3.6,1.6c0.6,0.2,1.7,0.6,2.2,0.9c0.6,0.2,1.4,0.5,1.7,0.5l0.6,0.1v-0.7
			c0-0.5,0.1-0.7,0.3-0.8c0.2-0.1,0.2-0.2,0.1-0.4c-0.2-0.2-0.4-1.2-0.7-3.3c-0.2-1.3-0.5-2.1-0.9-2.2c-0.1,0-0.4-0.3-0.5-0.6
			c-0.1-0.4-0.4-0.7-0.8-0.9c-0.3-0.2-0.6-0.4-0.6-0.5c0-0.2-0.9-1.1-1.2-1.1c-0.1,0-0.4-0.2-0.8-0.4c-0.3-0.2-1.1-0.6-1.6-0.8
			c-0.5-0.2-1.1-0.4-1.3-0.5c-0.8-0.4-6.2-1.5-13.4-2.6c-3.2-0.5-10.5-0.3-12.6,0.3c-1.9,0.6-3.8,1.3-4.5,1.8
			c-1.3,0.8-1.5,0.2-0.5-1.7c0.3-0.7,0.6-1.4,0.7-2.4c0.1-0.8,0.3-1.7,0.3-2.1c0.1-0.4,0.1-0.7,0.1-0.7c-0.1-0.1-1.1,1.5-1.3,2.2
			c-0.1,0.4-0.5,1.2-0.9,1.8c-1,1.6-1,1.6-1.1,3.4c-0.1,0.9-0.2,2.1-0.3,2.7s-0.3,1.8-0.4,2.8c-0.3,1.7-1.1,4-1.3,3.7
			c-0.1-0.1,0.1-0.9,0.7-4.4c0.3-1.4,0.4-2.4,0.5-4.9c0.1-2.2,0.4-3.3,2-6.7c0.3-0.7,0.6-1.3,0.6-1.4c0-0.4,2.2-3.9,3.4-5.2
			c0.7-0.9,1.4-1.8,1.6-2.2c0.2-0.3,0.6-0.9,1-1.4c2-2.2,3-3.2,3-3.4c0-0.1,0.4-0.8,0.9-1.5c0.5-0.7,1.4-2.2,2.1-3.2
			s1.9-2.7,2.8-3.8c0.9-1.1,1.7-2.2,1.9-2.5c0.1-0.3,0.4-0.7,0.5-0.8c0.5-0.5,0.6-1,0.2-0.7c-0.2,0.1-0.3,0.1-0.3,0
			c0-0.3,1-1.7,1.3-1.7c0.2,0,0.7-0.8,0.7-1.2c0-0.1,0.2-0.5,0.5-0.9c1.2-1.5,2.1-3.2,2.1-4.1c0-0.3,0.2-0.7,0.3-0.9
			c0.6-0.8,0.3-1.2-0.3-0.5c-0.3,0.3-0.7,0.4-0.7,0.2c0-0.1,0.4-0.6,0.8-1.1c0.9-1.2,1.2-1.9,1.2-3.7c0-1.2-0.1-1.2-0.5,0.2
			c-0.3,1-0.8,1.7-1.4,2c-0.6,0.3-1.7,1.7-4.2,5.5c-3.3,4.8-11.4,15.6-11.8,15.6c-0.4,0-1.4,1.7-2.8,5.2c-0.5,1.2-1.6,3.7-2.4,5.5
			c-0.8,1.8-1.7,3.7-1.8,4.2c-0.2,0.6-0.5,1.5-0.7,2.2c-0.4,1.2-2.1,8.9-2.6,11.9c-0.2,1.5-0.2,6.5,0,8.7c0.1,0.5,0,0.7-0.1,0.5
			c-0.1-0.1-0.2-1.2-0.3-2.4c-0.1-1.2-0.3-2.6-0.3-3.1c-0.3-1.7-0.2-3.8,0.3-6.6c0.3-1.5,0.6-3.2,0.7-4c0.3-2.1,0.6-3.5,1.4-5.5
			c0.4-1,1.1-2.8,1.6-4.1c0.5-1.2,1.2-3.1,1.6-4.1c0.4-1,1.1-3.3,1.5-5c1.3-5.5,4-10.1,9.3-16.6c0.7-0.8,1.7-2.2,2.3-3.1
			c1.6-2.4,5.1-7.1,6.5-8.7c1.6-2,2.2-3.3,1.4-3.1c-0.5,0.1-0.5,0-0.1-0.5c0.2-0.3,0.3-0.7,0.3-1.2c0-0.6,0.1-1.1,0.4-1.6
			c0.5-0.9,0.5-0.9,0.9-0.6c0.3,0.3,0.3,0.2,0.1-0.3c-0.1-0.3-0.2-0.6-0.2-0.6c0,0-0.1,0-0.2,0c-0.3,0.1-0.4-0.1-0.2-0.4
			c0.2-0.3,0.2-0.3,0.4,0c0.2,0.3,0.2,0.3,0.6,0c0.2-0.2,0.5-0.3,0.6-0.3c0.1,0.1,0.2-0.2,0.2-0.7c0-1.1,0.4-2.2,0.8-2.6
			c0.2-0.2,0.6-0.5,0.7-0.6c0.2-0.2,0.6-0.4,0.9-0.6c0.3-0.1,0.7-0.3,0.7-0.4c0.2-0.3,0.8-0.2,0.8,0.2c0,0.2,0.1,0.4,0.4,0.4
			c0.2,0.1,0.8,0.5,1.3,0.9l0.9,0.8l1.1-0.1c1.6-0.1,2.6-0.8,3.4-2.3c0.3-0.6,1-1,1.7-1c0.6,0,0.5,0.4-0.3,1c-0.6,0.5-0.7,0.6-0.6,1
			c0.1,0.3,0,0.6-0.4,1c-0.6,0.7-0.6,0.9-0.1,0.7c0.4-0.2,1.2-0.2,1.2-0.1c0,0.4-0.5,1-0.9,1.2c-0.5,0.2-0.5,0.3-0.4,0.5
			c0.2,0.2,0.1,0.3-1.2,0.2c-0.8,0-1.5,0-1.7,0c-0.4,0,0.3,0.5,0.9,0.5c0.3,0,0.6,0.1,0.8,0.3c0.2,0.2,0.6,0.4,0.9,0.5
			c0.6,0.2,1,0.6,1.6,1.8c0.2,0.4,0.9,1.4,1.7,2.2c2.8,3,3.5,3.5,6.4,4.8c0.9,0.4,2.5,1.1,3.7,1.7c2.4,1.1,3.9,1.5,7.1,1.6
			c2,0.1,2,0,0.1-0.6c-1.2-0.4-1.2-0.4-0.6-1c0.4-0.4,0.6-0.4,2.1-0.5c0.9-0.1,2.2-0.2,2.7-0.3c1.2-0.2,1.8,0,1.9,0.8
			c0,0.3,0.2,0.4,0.5,0.5c0.2,0,0.5,0.1,0.6,0.2c0.6,0.6,7.4-1.6,7.4-2.4c0-0.1-1.5-0.6-1.8-0.6c-0.1,0-0.8-0.3-1.4-0.6
			c-3.3-1.6-3.1-1.5-3.3-2.1c-0.4-1.1-0.7-1.4-2.4-2.1c-1-0.5-1.8-0.9-2.2-1.3c-1.2-1.3-2.2-1.3-5.5-0.2c-1.7,0.6-6.8,2.4-7.6,2.7
			c-0.3,0.1-0.9,0.2-1.2,0.2c-0.7,0-1,0.2-1.3,1c-0.2,0.5-1.4,0.4-2-0.3c-0.2-0.2-0.6-0.6-0.9-0.7c-0.8-0.6,0.2-2,1.6-2.5
			c0.4-0.1,1.3-0.5,2.1-0.9c4.1-1.8,8-2.7,8-1.8c0,0.3,1.6,0.4,3.6,0c0.6-0.1,2.4,0.3,4.1,0.9c0.4,0.1,0.9,0.3,1.2,0.2
			c1.4-0.1,1.9,0,2.3,0.3c0.3,0.2,0.6,0.3,0.8,0.3c0.2,0,0.4,0,0.4,0.1s0.2,0.2,0.4,0.2s0.3,0.1,0.4,0.2c0.1,0.2,0.3,0.3,0.6,0.3
			c0.7,0,2,0.3,3.9,1c0.8,0.3,1.8,0.6,2.2,0.7c0.9,0.2,1.4,0.7,1.3,1.3c-0.1,0.8,0.9,0.4,1.8-0.6c0.7-0.8,0.7-1.2,0-1
			c-0.3,0.1-0.6,0-0.7-0.1c-0.1-0.1-0.4-0.2-0.7-0.3c-0.6-0.1-1.6-0.9-1.6-1.2c0-0.1,0-0.4-0.1-0.5c-0.1-0.2-0.1-0.3,0.2-0.1
			c0.5,0.3,1.9,0.2,1.8,0c-0.1-0.2-1.4-1.1-3.2-2.1c-0.6-0.3-1.7-1-2.4-1.5c-2.6-1.7-4.5-2.8-6.3-3.6C207.3,66.8,207.2,66,210,67
			 M140.1,70.4c-0.3,0.8-0.3,0.8,0,0.5c0.2-0.3,0.3-0.8,0.2-0.8C140.2,70.2,140.1,70.3,140.1,70.4 M171,71.6
			c0.1,0.8-0.1,1.5-0.4,1.3c-0.1-0.1-0.2-0.4-0.2-0.8C170.5,70.7,170.9,70.3,171,71.6 M182.4,71.3c-0.2,0.2-0.1,0.4,0,0.4
			c0.1,0,0.2-0.1,0.2-0.2C182.8,71.2,182.6,71.1,182.4,71.3 M142.9,76.5c-0.2,0.5-0.4,1.2-0.5,1.5l-0.2,0.5l0.1-0.8
			c0.1-0.9,0.8-2.9,0.9-2.4C143.2,75.4,143.1,75.9,142.9,76.5 M170.7,76.4c0,0.2,0.1,0.8,0.3,1.4s0.3,1.3,0.3,1.6
			c0,0.3,0.1,0.6,0.2,0.8c0.2,0.4,0.2-1.3-0.1-2.5C171.2,76.6,170.7,75.8,170.7,76.4 M190,78.5c0,0.4,0.5,0.6,0.9,0.3
			c0.6-0.3,0.5-0.5-0.3-0.5C190.3,78.3,190,78.4,190,78.5 M155,78.6c-0.1,0.1-0.1,0.2-0.1,0.4c0,0.2,0.1,0.2,0.2,0.1
			c0.1-0.1,0.2-0.3,0.1-0.4C155.1,78.6,155,78.5,155,78.6 M136.5,79.4c-0.2,0.3-0.8,1.7-1,2.6c-0.1,0.3-0.3,0.9-0.5,1.2
			s-0.4,1-0.4,1.6l-0.1,1l0.6-1.1C136.6,82.1,137.7,78,136.5,79.4 M277.1,80.8c0.2,0.7,0.6,2.2,0.8,3.2c0.2,1,0.5,2.5,0.7,3.2
			c0.4,1.5,0.6,6,0.3,6.2c-0.2,0.1-0.3-0.4-0.2-1c0.1-0.7-1.6-10.2-2.3-12.7C276.1,78.7,276.7,79.6,277.1,80.8 M243.6,80.9
			c0.4,0.2,1.1,0.9,1.7,1.5c0.6,0.6,1.3,1.1,1.5,1.2c0.2,0.1,0.7,0.5,1,0.9c1.1,1.4,2,2.3,2.6,2.7c0.8,0.5,1.6,1.5,2.8,3.3
			c0.5,0.8,1.6,2.4,2.4,3.7c2.5,3.7,3.6,5.6,5.7,9.6c3,5.8,3.9,8,4.1,10.3c0.2,1.6-0.4,0.4-0.8-1.7c-0.3-1.8-0.7-2.8-1-2.6
			c-0.1,0-0.3-0.4-0.4-0.9c-0.2-0.5-0.5-1.2-0.7-1.4s-0.4-0.7-0.5-0.9c-0.1-0.2-0.3-0.5-0.5-0.5c-0.3-0.1-0.3,0-0.2,0.2
			c0.1,0.2,0.1,0.4,0.1,0.5c-0.1,0.1,0.1,0.6,0.2,1c0.7,1.5,2.2,7.3,2.2,8.4c0,0.6-0.3,0.1-0.7-1.2c-1.6-4.8-3.3-8.4-5.8-12.5
			c-0.9-1.5-2-3.3-2.4-4c-1-1.6-1.3-2.2-2.6-3.9c-0.5-0.7-1.7-2.5-2.6-3.9c-0.9-1.4-2.2-3.3-2.9-4.2c-0.7-0.9-1.6-2.3-2.1-3.1
			c-0.5-0.8-1.2-1.7-1.4-2C242.3,80.4,242.5,80.2,243.6,80.9 M171.4,81.3c0,0.3,0,0.5,0.1,0.3c0-0.2,0-0.4,0-0.6
			C171.4,80.9,171.4,81,171.4,81.3 M154.3,82.1c-0.3,0.9-0.1,1,0.3,0.2c0.3-0.7,0.3-0.9,0.1-0.9C154.6,81.3,154.4,81.7,154.3,82.1
			 M174.8,82.1c0,0.1,0.2,0.4,0.3,0.7c0.4,0.7,0.4,0.4,0.1-0.3C175,82,174.8,81.9,174.8,82.1 M155.3,83.6c-0.3,0.5-0.6,1-0.6,1.1
			s-0.1,0.1-0.3,0.1c-0.4-0.1-0.6,0.2-0.3,0.6c0.3,0.5,2.1-1.4,2.1-2.2C156.2,82.5,155.8,82.7,155.3,83.6 M175.9,84.8
			c0.1,0.4,0.3,0.9,0.4,1.2c0.2,0.3,0.3,0.7,0.3,0.8c0,0.1,0.1,0.4,0.2,0.5c0.1,0.2,0.4,0.6,0.5,0.9c0.2,0.5,0.3,0.6,0.4,0.4
			c0.1-0.2-0.1-0.7-0.4-1.3c-0.3-0.6-0.7-1.5-0.9-2C176.1,84.1,175.8,83.9,175.9,84.8 M152.5,86c-1.1,1.1-2.5,4-2,4.3
			c0.2,0.1,0.9-0.7,2.1-2.8C154.1,85,154,84.4,152.5,86 M238.3,86.2c0,0.2-0.1,0.2-0.4,0.2c-0.3-0.1-0.4,0-0.5,0.4
			c-0.1,0.4-0.2,0.5-0.5,0.6c-0.5,0.1-0.9,0.8-0.9,1.6c0,0.4-0.1,0.6-0.4,0.8c-1.2,0.8-0.2,4.7,1.6,6.5c0.8,0.8,2.8,3.7,4.4,6.6
			c0.3,0.5,1,1.7,1.6,2.6c0.6,0.9,1.3,2.1,1.7,2.8c0.9,1.6,2.8,4.7,3.5,5.5c0.3,0.4,1.1,1.5,1.8,2.5s1.8,2.7,2.6,3.7
			c0.7,1,1.5,2.1,1.6,2.3c0.1,0.3,0.7,1.1,1.4,1.8c3.6,4,4.6,6.6,4.7,11.2c0,1.4,0.1,3.2,0.1,3.8l0.1,1.2l-0.4-1
			c-0.2-0.6-0.6-1.6-0.7-2.2c-0.4-1.5-0.7-2.4-1-2.8c-0.1-0.2-0.5-0.7-0.7-1.2s-0.6-1.2-0.9-1.6c-2.1-3.1-3.2-4.7-4.1-5.6
			c-1.7-1.9-3.1-3.9-4.7-7.1c-2-3.8-3.2-5.7-5.8-9c-2.9-3.6-4.1-5.5-6.4-9.9c-2.7-5.2-2.9-5.5-2.4-3.2c0.2,1,0.2,1.3,0,1.6
			c-0.1,0.2-0.3,0.7-0.3,1.1c-0.1,0.8-0.6,1.8-0.8,1.8c-0.5,0-1.2,1.9-1.1,2.9c0.1,0.6,0.1,1.1,0.1,1.3c-0.1,2.7-0.2,3.1-0.7,3.6
			c-1.4,1.4-2.1,2.5-2.6,3.9c-0.2,0.5-0.5,1.2-0.7,1.6c-0.2,0.4-0.5,1.2-0.8,1.9c-0.2,0.7-0.6,1.8-0.8,2.4
			c-3.7,10.4-4.1,12.3-1.9,7.8c1-1.9,1.1-2.1,1.9-2.7c0.9-0.6,1-0.8,3-4.8c0.4-0.9,0.9-1.6,1-1.7c0.1-0.1,0.5-0.6,0.7-1.2
			c0.3-0.6,0.8-1.3,1.1-1.6c0.3-0.3,0.8-0.8,1.1-1.1c0.6-0.7,1.1-1,2-1c0.4,0,0.8-0.1,1-0.2c0.3-0.2,1.5,0.1,2.3,0.5
			c0.3,0.2,0.7,0.3,1,0.2c0.3,0,0.7,0.1,1.2,0.3c0.4,0.2,0.8,0.4,0.9,0.4c0.1,0,0.4,0.2,0.6,0.3c0.2,0.2,0.7,0.4,1,0.4
			c0.7,0.1,2.4,1.4,2.6,1.9c0.1,0.2,0.4,0.7,0.8,1.1c0.3,0.4,0.7,0.9,0.8,1.2c0.1,0.3,0.4,0.8,0.5,1c0.1,0.3,0.2,0.5,0.2,0.6
			c-0.1,0.1,0,0.3,0.1,0.5c0.1,0.2,0.3,0.7,0.5,1.1c0.5,1.3,0.7,1.6,1.1,2c0.4,0.4,1.2,2.1,1.7,3.2c0.2,0.4,0.4,0.9,0.5,1
			c0.1,0.1,0.2,0.3,0.2,0.5c0,0.1,0.2,0.6,0.4,1c0.2,0.4,0.4,0.9,0.4,1.1c0,0.2,0.1,0.6,0.2,0.8c0.1,0.3,0.2,0.5,0.2,0.6
			c0,0,0.2,0.4,0.5,0.7c0.4,0.5,0.5,0.7,0.4,1.1c-0.1,0.5-0.1,0.5-1.5,0.2c-0.6-0.1-1.8-0.4-2.8-0.6c-1-0.2-2.2-0.4-2.7-0.6
			c-0.5-0.1-1.2-0.3-1.5-0.3s-1-0.1-1.5-0.2c-0.5-0.1-1.2-0.3-1.7-0.3c-0.4-0.1-1.4-0.2-2.2-0.3c-2.5-0.4-13.6-0.2-16.5,0.2
			c-7.1,1.1-11.3,3.8-12.1,7.8c-0.1,0.5-0.3,1.2-0.4,1.4c-0.3,0.6,0.3,1.1,1.6,1.2c0.8,0.1,1.4,0,5.1-0.6c1.1-0.2,3-0.7,5-1.3
			c2.7-0.9,4.8-1.4,5.6-1.4c0.3,0,0.8-0.1,1-0.2c1.8-0.6,6-0.5,8.1,0.1c0.5,0.2,1.5,0.2,2.9,0.2c1.2,0,2.2,0,2.3,0.1
			s0.9,0.1,1.8,0.2c0.9,0,2,0.2,2.5,0.3c0.5,0.1,1.7,0.4,2.7,0.5c4.7,0.7,4.9,0.7,7.9,2.1c4.3,1.9,3.9,1.9,4,0.8
			c0.1-1.1,0.8,1.4,1,3.4c0.1,1.1,0.2,2.2,0.2,2.6c0,0.4,0.1,0.8,0.1,0.9c0,0.1,0.1,0.2,0.2,0.2s0.2-0.2,0.1-0.5
			c0-0.3,0-0.4,0.2-0.4c1,0.2,1.2-1.6,0.7-4.5c-0.3-1.6-0.3-2-0.2-2.3c0.3-0.5-0.1-2.8-0.6-3.9c-0.6-1.3-0.9-2.8-1.1-6
			c-0.4-7.4-3.6-14.6-11.9-27.2c-3.1-4.6-3.9-6-5.9-9.2c-0.8-1.4-1.7-2.8-2-3.2c-1.7-2.5-2-3-2.1-3.6c-0.1-0.4-0.3-1-0.6-1.4
			c-0.3-0.4-0.5-1-0.6-1.3C238.8,86.3,238.3,85.7,238.3,86.2 M134,86.6c-0.1,0.2-0.2,0.5-0.1,0.6c0,0.1,0.2,0,0.3-0.2
			c0.1-0.2,0.2-0.5,0.1-0.6C134.3,86.3,134.1,86.4,134,86.6 M133.1,88.5c-0.3,0.3-0.6,0.7-0.6,1c-0.1,0.8-0.4,5.9-0.3,6
			c0.3,0.3,1.7-5.9,1.5-7l-0.1-0.5L133.1,88.5 M171.5,89.2c-0.1,0.1-0.3,0.5-0.5,0.8c-0.2,0.3-0.6,0.9-1,1.3c-0.7,0.8-1.2,1.6-1,1.8
			c0.1,0.1,0.3-0.1,0.5-0.4s0.6-0.8,1-1.2c0.8-0.9,1.3-1.6,1.4-2.1C172,89,171.8,88.8,171.5,89.2 M215.8,90.1c0,0.3,0.7,0.5,0.9,0.2
			c0.1-0.1,0-0.3-0.1-0.3C216.3,89.8,215.8,89.8,215.8,90.1 M251.3,91.1c0,0.1,1.2,1.9,1.3,1.9c0,0-0.1-0.2-0.2-0.4s-0.4-0.7-0.6-1
			C251.5,91,251.3,90.9,251.3,91.1 M167.7,91.5c0,0.2-0.1,0.4-0.2,0.4c-0.1,0-0.4,0.5-0.7,1c-0.3,0.5-1,1.5-1.6,2.3
			c-0.6,0.8-1.8,2.3-2.5,3.3c-3.3,4.4-3.3,3.8,0-0.8c0.9-1.2,2.1-2.9,2.6-3.8C167.1,91.2,167.7,90.6,167.7,91.5 M202.9,97
			c-0.6,0.2-1.1,0.6-0.7,0.7c1.2,0.3,3.3,0.5,3.3,0.3c0-0.1-0.1-0.2-0.2-0.2c-0.1,0-0.5-0.2-0.8-0.5C203.8,96.8,203.7,96.8,202.9,97
			 M131.2,98.6c-0.2,1-0.4,4.6-0.2,4.1c0.3-0.8,0.8-4.9,0.5-4.9C131.4,97.8,131.3,98.2,131.2,98.6 M223.7,103.1
			c0,0.4,0.7,2.6,0.8,2.5c0.1-0.1-0.1-1.5-0.5-2.2C223.8,102.9,223.7,102.8,223.7,103.1 M211.5,104.9c0,0.1,0.2,0.3,0.4,0.6
			c0.2,0.2,0.4,0.3,0.4,0.2c0-0.1-0.2-0.3-0.4-0.6C211.7,105,211.5,104.8,211.5,104.9 M268.3,113.8c0.1,1,0.1,1.7,0,1.6
			c-0.2-0.2-0.6-2.9-0.6-4.2l0-1.2l0.2,1C268,111.6,268.2,112.9,268.3,113.8 M264,111.2c0,0.3-0.1,0.4-0.1,0.3
			c-0.2-0.2-0.2-0.6-0.2-1.1C263.7,110,264,110.7,264,111.2 M135.4,122.2c0,3.8,0,4.7-0.3,5.8c-0.5,2.2-0.7,1.8-0.6-1.2
			c0.1-1.5,0.2-4.6,0.2-7C134.9,113.9,135.3,115.4,135.4,122.2 M140.8,122.7c0.2,0.4,0.1,2.8-0.2,2.8c-0.3,0-0.5-0.7-0.5-1.8
			C140.2,122.3,140.4,121.9,140.8,122.7 M139.9,126.3c0.1,1-0.1,2.1-0.6,2.5c-0.3,0.2-0.5,1-1,2.9c-0.3,1.3-0.3,3.4-0.1,5.4
			c0.2,1.1,0.3,2.5,0.4,3.2c0.1,0.7,0.3,1.3,0.4,1.4c0.4,0.3,0.6,1,0.8,2.9c0.1,1,0.3,2.5,0.5,3.4c0.5,3,0,2.8-1.1-0.4
			c-1.2-3.4-1.5-4.6-1.7-7.6c-0.1-0.8-0.2-2.1-0.4-2.9c-0.8-3.6-1-5.5-0.7-8c0.1-1.2,0.3-0.8,0.4,0.7c0,0.4,0.1,1.1,0.2,1.5
			c0.1,0.4,0.2,0.9,0.3,1.2c0.2,0.9,0.4,0.1,0.4-2.3c0.1-2.1,0.1-2.4,0.5-3.2c0.3-0.5,0.6-1.2,0.8-1.5
			C139.5,124.8,139.7,125,139.9,126.3 M277.3,135.8l-0.2,1.2l0.1-1.3c0-0.7,0.1-1.5,0.2-1.8C277.5,133,277.5,134.5,277.3,135.8
			 M140,135c0,0.8-0.2,2.4-0.4,3.2c-0.2,0.6-0.4-0.5-0.4-2c0-1.3,0-1.7,0.3-2.1C139.8,133.5,140,133.8,140,135 M152.9,135.2
			c0.2,0.3-1.1,1.3-1.5,1.3c-0.4,0-1.2,0.8-2,1.9c-0.5,0.7-0.5,1.2-0.2,1.8c0.2,0.3,0.2,0.6,0.1,1c-0.1,0.3-0.2,0.8-0.2,1.1
			c0,0.6-0.4,1.2-0.8,1.6c-0.2,0.1-0.3,0.3-0.2,0.4c0.1,0.1-0.1,0.3-0.4,0.4c-0.3,0.2-0.5,0.2-0.5,0.1c-0.1-0.3-0.4-0.2-0.4,0.1
			c0,0.2,0.2,0.4,0.5,0.5c0.9,0.3,0.6,0.7-0.7,0.7c-1.8,0-2.1-0.7-2-3.6c0.1-1.6,0.6-2.9,1.5-3.9c0.2-0.2,0.4-0.6,0.6-0.9
			c0.7-1.5,2.6-2.5,4.2-2.3c0.4,0,0.9,0,1.1-0.1C152.5,135,152.8,134.9,152.9,135.2 M187,140.7c0.2,0.6,0.1,0.6-0.3,0.1
			c-0.4-0.4-0.5-1.2-0.1-0.8C186.7,140.1,186.9,140.5,187,140.7 M171.5,145.1c0.6,0,1.9,0.4,2.9,0.8c2.2,0.9,2.5,1.1,2.8,1.6
			c0.3,0.5,0.3,0.5,0,0.4c-1.4-0.7-3.2-1.4-3.8-1.4c-0.2,0-0.7-0.1-1.1-0.2c-1.1-0.4-5-0.4-5.6-0.1c-0.8,0.4-1.6,0.6-2.3,0.6
			c-0.6,0-1.2,0.2-2.8,1.2c-1.2,0.8-1.8,0.8-1.1,0c0.8-0.9,2.8-2,3.9-2.1c0.5-0.1,1-0.2,1.1-0.3c0.1-0.1,0.3-0.2,0.5-0.2
			c0.2,0,0.7-0.2,1-0.3C167.8,144.8,167.8,144.8,171.5,145.1 M226.7,146c-0.2,0.1-0.7,0.1-1,0.1c-2.4-0.1-3.5,0-4,0.3
			c-0.3,0.2-1.1,0.4-1.7,0.6s-1.3,0.3-1.5,0.3c-0.5,0.2-0.8,0-0.6-0.3c0.4-1-3.1-1-4.7,0c-0.2,0.1-0.5,0.2-0.7,0.2
			c-0.6,0-2,2.1-2,3.1c0,0.2-0.1,0.7-0.3,1.1c-0.2,0.5-0.2,1-0.2,1.6c0,0.5,0,1.1-0.1,1.4c-0.1,0.3-0.1,0.6,0,0.8
			c0.3,0.5,0.9,1.1,1.1,1.1c0.1,0,0.2,0.1,0.2,0.2c0,0.3,1,1.1,1.4,1.1c0.7,0,1,0.3,0.9,0.8c-0.2,0.8,0.3,0.8,1.6-0.1
			c0.7-0.4,1.6-1,2-1.3c0.7-0.4,0.9-0.5,1.1-0.3c0.2,0.2,0.4,0.2,0.5,0c0.4-0.4,0.6-0.2,0.7,0.3c0.1,0.7,1,1.2,3.9,1.9
			c1,0.2,2.1,0.5,2.5,0.6c0.4,0.1,1.4,0.3,2.3,0.5c0.9,0.2,2,0.5,2.4,0.7c2.4,1.1,3.9,1.4,4,0.8c0.1-0.4,0.7-0.4,0.9,0
			c0.1,0.3,0.1,0.3,0.6,0.1c0.4-0.2,0.8-0.2,1.8-0.2c1.4,0.1,3.2-0.1,3.6-0.4c0.3-0.2,2.9-0.5,3.9-0.5c0.3,0,0.9-0.1,1.2-0.3
			c0.5-0.3,0.6-0.3,1.4,0c0.4,0.2,1.1,0.4,1.5,0.5c0.7,0.2,1.5,0.5,1.9,0.8c0.7,0.5,1.3-0.6,1.2-2c-0.1-0.9,0-1.6,0.1-2.2
			c0.1-0.5,0.3-1.4,0.4-1.8c0.1-0.4,0.2-0.8,0.3-0.8c0.3,0,0.2-0.5-0.1-0.6c-0.1-0.1-0.2-0.2-0.2-0.4c0-0.3-1.5-2-1.8-2
			c-0.3,0-1-0.6-0.9-0.8c0.1-0.2-0.2-0.4-0.8-0.4c-0.4,0-0.8-0.2-1.6-0.7c-0.2-0.1-1-0.5-1.7-0.7c-0.7-0.2-1.5-0.5-1.8-0.7
			c-0.7-0.3-1.7-0.6-2.5-0.6c-0.3,0-0.8-0.1-1-0.2c-0.6-0.3-10.5-1.7-12.2-1.7c-0.3,0-0.8-0.1-1-0.2
			C227.5,145.9,227.1,145.9,226.7,146 M121.2,147.1c-0.6,0.5-1.5,2.4-1.6,3.3l-0.1,0.6l0.2-0.5c0.1-0.3,0.2-0.6,0.2-0.7
			c0-0.5,0.8-1.6,1.6-2.4c0.7-0.7,0.8-0.8,0.5-0.8C121.9,146.7,121.5,146.9,121.2,147.1 M233.2,148.6c0.1,0.1,0.2,0.1,0.4,0
			c0.4-0.3,2.9,0.1,5.3,0.8c0.3,0.1,0.8,0.2,1.2,0.3c0.8,0.2,2.5,1.2,2.9,1.6c0.1,0.2,0.8,0.8,1.5,1.4c2.1,1.8,1.2,1.9-1.4,0.2
			c-0.6-0.4-1.2-0.7-1.3-0.7c-0.2,0-0.7-0.2-1.2-0.5c-0.5-0.3-1.2-0.7-1.5-0.8c-0.3-0.2-0.7-0.4-0.9-0.6c-0.4-0.3-1.1-0.5-3.3-0.8
			c-0.9-0.1-1.6-0.3-1.6-0.4c-0.1-0.2-0.2-0.1-0.5,0c-0.3,0.1-0.7,0.2-0.9,0.2c-0.8,0-2.4,0.4-3.2,0.7c-0.4,0.2-0.8,0.3-0.9,0.3
			s-0.3,0.1-0.4,0.2c-0.2,0.2-1.6,0.5-1.7,0.4c0,0,0.3-0.3,0.7-0.6c1.6-1,1.9-1.2,3.4-1.5c0.7-0.2,1.3-0.3,1.3-0.4
			C231.3,148.3,233.1,148.4,233.2,148.6 M274.2,149.4c0,1.2-0.3,2.6-0.5,2.5c-0.2-0.1-0.1-2,0.1-3.1
			C273.9,148,274.2,148.4,274.2,149.4 M276.4,149.6c-0.1,4-0.1,12,0,14.4c0.1,3.1,0,3.3-0.5,0.8c-0.5-2.6-0.6-3.4-0.5-6.5
			c0-2.9,0-3.1-0.3-3.3c-0.3-0.2-0.3-0.4-0.2-1C275.3,150.2,276.5,147,276.4,149.6 M167.3,149.5c0.1,1.1-0.6,1.3-1.1,0.3
			c-0.2-0.4-0.2-0.5,0-0.7C166.7,148.6,167.2,148.8,167.3,149.5 M174.6,149.7c0.5,0.4,0.5,0.5-0.2,0.5c-0.6,0-0.8-0.2-0.7-0.6
			C173.9,149.2,174.2,149.3,174.6,149.7 M159,149.7c0,0.5-2.1,3.6-2.4,3.6c-0.7,0-0.4-0.7,0.7-1.9c0.4-0.5,0.9-1.1,1.1-1.4
			C158.6,149.5,159,149.3,159,149.7 M170.7,150.6c0.5,0.5,0.1,1.3-0.5,1.1c-0.1,0-0.4,0-0.6,0.1c-0.6,0.3-0.8,0-0.5-0.7
			C169.5,150.3,170.2,150.1,170.7,150.6 M179.4,152.2c0.7,0.6,1.3,1.1,1.3,1.2c0,0.1,0.3,0.5,0.6,0.8c0.9,0.9,0.8,1.1-1.1,1.5
			c-3,0.6-4.6,0.6-3.7-0.1c0.7-0.6,0.9-0.9,1.1-1.8c0.1-0.5,0.2-1.3,0.2-1.8C177.7,150.9,177.8,150.9,179.4,152.2 M167.9,152.3
			c-0.2,0.3-0.6-0.1-0.6-0.5v-0.4l0.4,0.4C167.9,152,168,152.2,167.9,152.3 M176.4,152.3c0,0.1-0.1,0.3-0.2,0.3
			c-0.1,0-0.2-0.1-0.2-0.3c0-0.2,0.1-0.3,0.2-0.3C176.3,152.1,176.4,152.2,176.4,152.3 M231.9,152.7c-0.1,0.4-0.5,0.4-0.6-0.1
			c-0.1-0.3,0.3-0.6,0.5-0.4C232,152.2,232,152.5,231.9,152.7 M158.6,152.6c0,0.1,0,0.2-0.2,0.4c-0.2,0.2-0.2,0.1-0.2-0.1
			C158.2,152.5,158.4,152.4,158.6,152.6 M228.9,152.9c0,0.2-0.1,0.9-0.2,1.6c-0.2,1.3-0.1,2,0.5,4c0.3,1,0.1,1.2-1.2,0.8
			c-2.2-0.5-3.8-1.1-4.3-1.6c-0.3-0.3-0.7-0.5-1-0.5c-0.6-0.1-0.8-0.7-0.2-0.8c0.2,0,0.9-0.7,1.6-1.4c1.3-1.3,2-1.8,3.6-2.3
			C228.6,152.5,228.9,152.5,228.9,152.9 M175.1,153.3c0.3,0.4-1.5,2-2.3,2c-0.2,0,0.4-0.9,1.2-1.8
			C174.4,153.2,174.9,153,175.1,153.3 M235.4,154.4c0.4,0.6,0.1,1-0.7,1c-0.7,0.1-1.3-0.2-1.3-0.6
			C233.5,154,234.9,153.7,235.4,154.4 M238.8,154.8c0,0.2,0,0.2-0.2,0c-0.1-0.1-0.2-0.3-0.2-0.5c0-0.2,0-0.2,0.2,0
			C238.7,154.4,238.8,154.7,238.8,154.8 M243.3,155.2c1.1,0.8,1.4,1.2,2,2.2c0.2,0.4,0.5,0.8,0.7,0.9c0.6,0.4-0.4,0.9-3.1,1.7
			c-2,0.5-2.3,0.4-1.6-0.5c0.6-0.8,0.9-1.9,0.9-3.4C242.1,154.2,242.1,154.2,243.3,155.2 M239,156.1c-0.1,0.2-0.3,0.6-0.5,0.9
			c-0.3,0.6-0.7,1-0.7,0.6c0-0.1,0.2-0.5,0.4-0.8c0.2-0.3,0.4-0.7,0.4-0.8c0-0.3,0.2-0.5,0.4-0.3C239.2,155.8,239.2,155.9,239,156.1
			 M232,156.3c0,0.2-0.1,0.3-0.3,0.3c-0.4,0-0.6-0.2-0.3-0.4C231.6,155.9,232,156,232,156.3 M146.7,157.2c-0.4,0.3-0.4,0.3-0.1,0.3
			c0.5,0,0.9-0.3,0.7-0.5C147.1,156.9,146.9,156.9,146.7,157.2 M232.5,158.4c0,0.3-0.2,0.3-0.5,0c-0.3-0.3-0.3-0.7,0.1-0.5
			C232.4,158.1,232.5,158.3,232.5,158.4 M237.4,158.5c-0.2,1-0.9,1.3-2.1,0.9c-0.4-0.2-0.8-0.2-1.1-0.2c-0.6,0.1-1.3-0.2-1.2-0.4
			c0-0.1,0.4-0.2,0.9-0.2s1.3-0.2,1.9-0.3s1.2-0.2,1.2-0.2C237.4,157.8,237.5,158,237.4,158.5 M167.4,158.3
			c-0.6,0.1-0.7,0.1-0.9,0.5c-0.3,0.7-0.2,0.8,0.3,0.5c0.7-0.4,1.5-0.3,3,0.4c0.4,0.2,0.9,0,0.9-0.4c0-0.2,0.1-0.3,0.2-0.3
			s0.1-0.1,0.1-0.2c-0.1-0.1-0.5-0.2-1-0.2c-0.5,0-1.1-0.1-1.3-0.2c-0.2-0.1-0.5-0.2-0.5-0.2C168.1,158.2,167.8,158.3,167.4,158.3
			 M180.6,158.7c0,0.6,0.3,0.6,1,0.2c0.3-0.1,0.6-0.2,0.8-0.2c0.2,0,0.3-0.1,0.3-0.2c0-0.2-0.6-0.2-0.7,0c-0.1,0.2-0.8,0-0.8-0.2
			c0-0.1-0.1-0.1-0.3-0.1C180.6,158.2,180.6,158.3,180.6,158.7 M174.9,158.8c-0.1,0-0.2,0.2-0.2,0.3c0,0.2-0.2,0.2-0.5,0.2
			c-0.6,0-0.7,0.3,0,0.4c0.3,0,0.5,0.1,0.5,0.4c0,0.9,0.7,1.3,1.2,0.7c0.1-0.2,0.4-0.4,0.5-0.4c0.2,0,0.1-0.2-0.1-0.7
			C175.7,159,175.3,158.7,174.9,158.8 M167.8,159.4c0,0.1,0.1,0.2,0.3,0.2c0.4,0,0.4-0.3,0.1-0.4
			C167.9,159.1,167.8,159.1,167.8,159.4 M172.2,159.3c-0.2,0.3,0.2,0.5,0.8,0.3c0.6-0.2,0.6-0.2,0.2-0.3
			C172.5,159.1,172.4,159.1,172.2,159.3 M221.2,160.4c-0.9,0.3-0.5,1.3,0.6,1.6c1.7,0.5,3,0.7,3.8,0.7c1.2-0.1,3.3,1,3.5,1.7
			c0.1,0.6,1.1,1.2,1.7,1.1c0.4,0,1.4,0.5,1.8,1c0.6,0.8,1.9,0.6,1.8-0.2c0-0.4,0-0.6,0.1-0.6c0.1,0,0.2,0,0.3-0.2
			c0-0.1-0.1-0.2-0.3-0.2c-0.3,0-0.6-0.1-1.8-0.6c-0.3-0.1-0.7-0.2-0.9-0.1c-0.5,0.2-1.2-0.3-1.7-1c-0.7-1-1.5-1.5-5.1-2.7
			C224,160.4,221.7,160.2,221.2,160.4 M172.8,160.9c-0.1,0.1-0.2,0.3-0.1,0.3c0.2,0.2,0.6-0.1,0.6-0.4
			C173.3,160.6,173.1,160.6,172.8,160.9 M121.1,161.7c0.3,1.9,0.4,3.5,0.4,5.3c0,1.4,0.1,2.3,0.3,3.2c0.2,0.7,0.4,1.4,0.4,1.6
			c0.1,0.4,0.2-2.2,0.2-4c-0.1-2.2-0.4-4.7-0.7-5.8C121.3,160.8,120.9,160.6,121.1,161.7 M137.3,161.2c-0.2,0.5-0.1,2.1,0.1,3.1
			c0.2,1.1,1.1,3.1,1.3,2.8c0-0.1,0-0.5-0.2-0.8c-0.3-0.7-0.6-1.9-0.8-3.9C137.5,161.6,137.4,161,137.3,161.2 M165,161.9
			c-0.3,0.3-0.1,0.6,0.4,0.5c0.7-0.1,0.8-0.5,0.1-0.6C165.3,161.8,165,161.9,165,161.9 M0.1,162.8C0.1,162.8,0,216.2,0,281.4V400
			l18.4,0l18.4,0l0.3-1.5c0.5-2.2,0.5-3.8,0-4.3c-0.7-0.6-0.6-1.5,1-9.3c0.3-1.8,0.8-3.7,1.7-6.8c1.1-3.9,3.1-13.2,3.2-15
			c0.1-0.7,0.2-1.7,0.3-2.2c0.1-0.5,0.4-1.7,0.6-2.8s0.4-2.3,0.5-2.6c0.3-1.3,0.8-4.8,1-6.8c0.1-1.3,0.3-2.6,0.6-3.7
			c0.5-1.9,0.5-1.9,0.8-1.6c0.1,0.1,0.3,0.2,0.5,0.2c0.5,0,0.6,0.9,0.2,1.6c-0.7,1.2-0.5,3.7,0.2,2.9c0.3-0.4,0.5-4.1,0.2-4.5
			c-0.1-0.1-0.2-0.7-0.2-1.3c0-0.7-0.2-1.5-0.4-2.1c-0.4-1.1-0.5-3.9-0.2-5.5c0.1-0.5,0.2-1.7,0.3-2.7c0.1-1.1,0.2-2.6,0.3-3.5
			c0.1-0.9,0.3-2.7,0.4-4.1c0.1-1.4,0.2-3,0.3-3.6c0.1-0.6,0.2-2.1,0.3-3.3c0.2-3,0.5-4.8,1.2-7.3c0.3-1.2,0.7-2.8,0.8-3.8
			c0.1-0.9,0.4-2.9,0.7-4.4c0.2-1.5,0.6-3.8,0.8-5c0.2-1.2,0.4-2.6,0.5-3c0.1-0.4,0.2-1.8,0.3-3c0.1-1.8,0.9-7.7,1.2-8.5
			c0.2-0.5,0.9-5,1.2-7.5c0.1-0.5,0.3-2.3,0.6-4c0.5-3,0.5-3.7,0.2-5.6c-0.1-0.4-0.2-0.7-0.3-0.8c-0.2-0.1-0.1-0.4,0.7-2.9
			c0.3-0.8,0.6-1.6,0.7-1.7c0.3-0.4,1.4-2.5,1.4-2.7c0-0.3,0.3-0.3,0.4-0.1c0.2,0.3,0.5,0.2,0.8-0.4c0.1-0.3,0.6-1.2,1-2
			c0.4-0.8,0.8-1.6,0.8-1.7c0-0.1,0.3-0.8,0.6-1.6c0.3-0.7,0.6-1.6,0.7-2c0.1-0.3,0.2-0.7,0.3-0.8c0.1-0.1,0.4-0.6,0.6-1.1
			c0.9-1.8,1.7-0.6,1.5,2.2c0,1.2,0.6,0.6,0.7-0.7c0.4-2.9,0.3-2.7,0.9-3c0.3-0.2,0.5-0.3,0.4-0.3c-0.1,0-0.2-0.1-0.1-0.2
			c0.3-0.5-0.7-1.8-1.3-1.8c-0.4,0-0.6,0-0.6-0.2c0-0.1,0-0.3-0.1-0.4c0-0.1-0.1-0.3-0.1-0.4c0-0.2-0.1-0.1-0.3,0.2
			c-0.1,0.3-0.2,0.5-0.2,0.6c0.2,0.3-0.1,1.5-0.4,1.5c-0.2,0-0.3-0.2-0.3-1.9c0-2.2,0-2.1,1.2-4.6c0.5-1.1,1.3-2.9,1.7-4.2
			c0.4-1.2,1-2.7,1.3-3.2c0.7-1.3,0.7-1.6,0-1c-0.3,0.2-0.7,0.4-0.8,0.4c-0.5,0-0.7,0.4-1.1,2.3c-0.3,1.5-0.6,2.3-1.1,3.5
			c-1.3,2.7-1.9,4.5-2,6c0,0.2-0.4,0.9-0.9,1.6c-0.6,0.8-1,1.5-1.1,2c-0.3,1.1-1,3.3-1.4,4.3c-0.5,1.2-0.6,1.6-0.6,1.7
			c0,0.1-0.1,0.2-0.1,0.2c-0.1,0.1-0.2,0.2-0.3,0.4c-0.1,0.2-0.4,0.4-0.7,0.6c-0.4,0.2-0.5,0.4-0.6,0.9c-0.3,1.7-1.3,2.8-2.3,2.6
			c-0.3-0.1-0.3-0.1-0.2-0.2c0.5,0,0.3-0.3-0.2-0.5c-0.3-0.1-0.5-0.3-0.6-0.6c-0.1-0.3-0.2-0.5-0.4-0.6c-0.3-0.1-0.9-1.2-0.9-1.6
			c0-0.1-0.1-0.2-0.2-0.2c-0.1,0-0.2-0.1-0.2-0.3s-0.2-0.4-0.3-0.6c-0.2-0.2-0.3-0.4-0.3-0.6c0-0.2-0.1-0.3-0.2-0.4
			c-0.1-0.1-0.2-0.2-0.2-0.4c0-0.2-0.1-0.3-0.2-0.3c-0.1,0-0.2-0.2-0.2-0.3c0-0.2-0.1-0.3-0.2-0.2c-0.2,0.1-0.7-0.3-0.7-0.6
			c0-0.1-0.1-0.3-0.3-0.4c-0.2-0.1-0.5-0.4-0.6-0.8c-0.2-0.4-0.4-0.7-0.6-0.7c-0.2,0-0.3-0.1-0.3-0.3c0-0.2-0.1-0.5-0.2-0.8
			l-0.2-0.5l0,0.5c0,0.3-0.1,0.4-0.2,0.4c-0.1-0.1-0.1-0.3-0.1-0.4c0.1-0.2,0-0.3-0.2-0.3c-0.3,0-0.7-0.5-0.7-0.8
			c0-0.3-0.4-0.7-0.7-0.7c-0.1,0-0.2-0.1-0.2-0.2s0.1-0.2,0.2-0.2c0.4,0,0.3-0.2-0.2-0.5c-0.3-0.2-0.4-0.5-0.4-0.7
			c0-0.3,0-0.3-0.2-0.3c-0.2,0-0.3-0.1-0.3-0.3c0-0.2-0.2-0.4-0.3-0.5c-0.2-0.1-0.3-0.4-0.3-0.5c0-0.2-0.1-0.3-0.2-0.3
			c-0.1,0-0.2-0.2-0.2-0.3c0-0.5-0.3-1-0.6-1c-0.1,0-0.3-0.2-0.3-0.5c-0.1-0.3-0.2-0.5-0.3-0.5c-0.2,0-1-0.8-1-1
			c0-0.1-0.1-0.2-0.2-0.4c-0.1-0.1-0.2-0.5-0.2-0.9c0-0.4-0.1-0.6-0.2-0.6c-0.1,0-0.2-0.1-0.2-0.2c0-0.1-0.1-0.2-0.3-0.2
			c-0.2,0-0.3-0.1-0.3-0.2c0-0.1,0.1-0.2,0.2-0.2c0.3,0,0.2-0.4-0.1-0.4c-0.4-0.1-0.6-1.3-0.3-1.8c0.2-0.4,0-0.4-0.3,0
			c-0.2,0.2-0.3,0.2-0.4,0c-0.1-0.1-0.1-0.1-0.2-0.1c0,0.1-0.1,0-0.2-0.2c-0.1-0.2-0.1-0.5-0.1-0.7c0.1-0.2,0-0.3-0.2-0.4
			c-0.3-0.1-0.6-1-0.5-1.3c0.1-0.1,0-0.3-0.1-0.4c-0.1-0.1-0.1-0.2,0-0.6c0.2-0.6,0.2-0.8,0-0.8c-0.1,0-0.2,0.1-0.2,0.3
			s-0.1,0.2-0.2,0.2c-0.3-0.1-0.3-1.5-0.1-1.7c0.1-0.1,0.1-0.2,0-0.6c-0.1-0.2-0.2-0.6-0.2-0.8c0-0.2-0.1-0.4-0.3-0.4
			c-0.2-0.1-0.3-0.2-0.2-0.3c0.1-0.2-0.1-0.4-0.4-0.7c-0.5-0.4-0.5-0.4-0.5-0.1c-0.1,0.4-0.5,0.5-0.5,0.1c0-0.1,0.1-0.2,0.2-0.2
			c0.3,0,0-0.9-0.4-1.2c-0.2-0.1-0.3-0.4-0.3-0.7c0-0.3,0-0.3-0.2-0.1c-0.1,0.2-0.2,0.2-0.2-0.1c0-0.2-0.1-0.3-0.2-0.2
			c-0.3,0.1-0.6-0.2-0.6-0.5c0-0.1,0.1-0.2,0.3-0.2c0.5,0,0.6-0.3,0.2-0.4c-0.2,0-0.3-0.1-0.3-0.2s-0.2-0.2-0.3-0.2
			c-0.2-0.1-0.3-0.2-0.3-0.5c0-0.2-0.1-0.3-0.1-0.2c-0.2,0.4-0.4,0.2-0.3-0.2c0.1-0.4-0.2-0.9-0.6-0.9c-0.1,0-0.1-0.2-0.1-0.5
			c0.1-0.5,0.1-0.5-0.2-0.2c-0.3,0.3-0.3,0.3-0.4-0.2c-0.1-0.3-0.2-0.5-0.5-0.5c-0.3,0-0.4-0.2-0.4-0.5c0-0.4-0.6-1.2-0.9-1.1
			c-0.1,0-0.1-0.2,0-0.6c0.1-0.5,0-0.6-0.2-0.7c-0.4-0.1-0.4-0.4-0.1-0.4c0.6,0,0.4-0.6-0.3-0.8c-0.7-0.2-1-0.6-0.6-0.9
			c0.2-0.1,0.1-0.1-0.1-0.1c-0.2,0-0.4-0.1-0.4-0.3c0-0.1,0.1-0.2,0.2-0.2c0.9,0,0.6-1.3-0.6-2.1c-0.5-0.3-0.7-0.6-0.9-1.3
			c-0.1-0.5-0.3-0.9-0.4-1c-0.1-0.1-0.2-0.5-0.3-1.1c-0.1-0.5-0.2-0.9-0.2-0.9c-0.1,0-0.1-0.2-0.1-0.3c0-0.3-0.1-0.3-0.3-0.2
			c-0.3,0.1-0.3,0-0.3-0.4c0-0.3-0.1-0.5-0.2-0.5c-0.3,0-0.5-0.6-0.3-1c0.1-0.2,0-0.3-0.1-0.3c-0.1,0-0.2,0.1-0.2,0.2
			s-0.1,0.1-0.2,0.1c-0.1-0.1-0.1-0.3-0.1-0.5c0.1-0.3,0-0.4-0.1-0.4c-0.3,0-0.5-0.4-0.3-0.6c0.2-0.2,0-0.5-0.3-0.5
			c-0.1,0-0.3-0.1-0.3-0.3c-0.1-0.2-0.2-0.3-0.3-0.3c-0.1,0-0.2-0.1-0.2-0.2c0-0.1,0.2-0.2,0.4-0.2s0.4-0.1,0.4-0.2
			c0-0.1-0.1-0.1-0.1-0.1c-0.3,0.2-1-0.3-0.9-0.6c0.1-0.2,0-0.3-0.3-0.4c-0.3-0.1-0.4-0.2-0.4-0.5c0-0.4-0.2-0.5-0.4-0.2
			c0,0.1-0.1,0.1-0.1-0.1c0-0.2-0.1-0.3-0.2-0.2c-0.1,0.1-0.2,0-0.1-0.4c0.1-0.3,0-0.6-0.1-0.6c-0.1-0.1-0.2,0-0.2,0.1
			c0,0.1-0.1,0.2-0.3,0.2c-0.2,0-0.2-0.1-0.1-0.6c0.1-0.6,0-0.7-0.3-1c-0.5-0.4-0.6-0.7-0.2-0.7c0.4,0,0-1.3-0.5-1.4
			c-0.2,0-0.3-0.2-0.3-0.4c0-0.2-0.1-0.4-0.1-0.4c-0.1-0.1-0.2-0.4-0.2-0.8c0-0.6,0-0.7-0.4-0.7c-0.4,0-0.4-0.7,0-0.8
			c0.3-0.1,0.1-0.4-0.2-0.4c-0.2,0-0.3-0.1-0.3-0.2c0-0.1-0.2-0.2-0.4-0.2c-0.4,0-0.6-0.4-0.2-0.5c0.1,0,0-0.3-0.3-0.6
			c-0.5-0.5-0.6-0.9-0.5-1.4c0-0.1-0.1-0.1-0.3-0.1c-0.2,0-0.2-0.1-0.2-0.5c0.1-0.3,0-0.5,0-0.3c-0.1,0.1-0.3,0.2-0.5,0.1
			c-0.4-0.1-0.5-0.4-0.2-0.4c0.3,0,0.2-0.3-0.1-0.5c-0.4-0.2-0.7-0.6-0.7-1c0-0.2-0.1-0.4-0.3-0.5c-0.1-0.1-0.2-0.2-0.2-0.4
			c0-0.2-0.1-0.3-0.4-0.3c-0.3,0-0.3-0.1-0.3-0.4c0.1-0.4,0-0.5-0.8-1.3c-0.3-0.3-0.4-0.6-0.4-0.7c0.1-0.1-0.1-0.4-0.4-0.7
			c-0.3-0.3-0.5-0.6-0.5-0.8c0-0.2-0.1-0.3-0.2-0.3c-0.1,0-0.2-0.1-0.2-0.2c0-0.1-0.2-0.3-0.4-0.4c-0.3-0.1-0.4-0.2-0.4-0.7
			c0-0.4-0.1-0.6-0.4-0.8c-0.4-0.2-0.6-0.5-0.2-0.5c0.1,0,0.2-0.1,0.2-0.2c0-0.3-0.5-0.2-0.6,0.1c0,0.2-0.1,0.1-0.1-0.1
			c0-0.2-0.1-0.5-0.3-0.5c-0.1-0.1-0.2-0.2-0.2-0.3c0-0.1-0.2-0.3-0.3-0.5c-0.2-0.1-0.3-0.4-0.3-0.7c0-0.4-0.1-0.5-0.5-0.6
			c-0.5-0.1-0.7-0.6-0.3-0.6c0.2,0-0.1-0.6-0.4-1c-0.1-0.1-0.2-0.5-0.2-0.8c0-0.5-0.1-0.6-0.4-0.6c-0.4,0-0.4-0.1-0.4-0.7
			c0-0.6-0.1-0.7-0.2-0.6c-0.4,0.1-0.3-0.4,0-0.6C5,168,5,168,4.6,167.9c-0.3-0.1-0.5-0.2-0.5-0.4c0-0.1-0.2-0.4-0.4-0.6
			c-0.2-0.2-0.4-0.5-0.4-0.7c0-0.1-0.1-0.3-0.1-0.3c-0.1,0-0.2-0.2-0.2-0.5c-0.1-0.3-0.2-0.5-0.4-0.6c-0.2-0.1-0.4-0.3-0.4-0.6
			c-0.1-0.5-0.1-0.5-0.3-0.2c-0.3,0.4-0.5,0.2-0.5-0.5c0-0.3-0.1-0.5-0.2-0.5c-0.1,0-0.3-0.1-0.5-0.2C0.4,162.8,0.2,162.7,0.1,162.8
			 M168,163.2c0,0,0.1,0.2,0.3,0.3c0.4,0.2,1.3,0,1-0.2C169.1,163.2,168,163.1,168,163.2 M284.5,173.8c0.1,0.5,0.3,0.9,0.6,1.2
			c0.5,0.4,0.5,0.5,0.8,3.3c0.4,4.4-1.9,13.2-5.6,21.9c-1.7,3.9-2.1,4.1-1.5,0.6c0.2-0.9,0.6-3.1,0.9-4.9c0.8-4.5,1.2-6.5,2.1-9.8
			c0.9-3.6,1.4-6.1,1.7-9.8c0.1-1.6,0.3-3,0.3-3.1C284.1,172.7,284.4,173.1,284.5,173.8 M143.2,175.3c0,0.4,1,1,2,1.2
			c1.5,0.3,2.3,0.7,2.3,1.1c0,0.4,1.7,1.9,2.6,2.1c1,0.3,4.6,0.3,6.7-0.1c0.3-0.1,1.4-0.2,2.4-0.3c1.1-0.1,1.9-0.2,2-0.2
			s0-0.1,0-0.2c0-0.1-0.6-0.2-1.5-0.2c-0.8,0-1.9-0.1-2.5-0.2c-4.3-0.8-5.6-1.1-6.7-1.4c-0.7-0.2-2.1-0.6-3.3-0.9
			c-1.1-0.3-2.3-0.6-2.7-0.8C143.7,175.1,143.2,175.1,143.2,175.3 M122.9,176.9c0.1,0.5,0.5,2.6,0.5,3.1c0.1,0.8,0.1,0.8,0.2,0.7
			c0.2-0.1,0.2-1.3,0-2.1c-0.1-0.3-0.2-0.8-0.2-1c0-0.2-0.2-0.6-0.3-0.8l-0.3-0.3L122.9,176.9 M266.8,180c-0.4,0.8,0.2,1.9,0.7,1.2
			c0.2-0.4,1.5-0.5,1.5-0.2c0,0.1,0.2,0.1,0.5-0.1c1.7-0.9,3.2,2.2,2.4,5c-0.1,0.4-0.2,0.7-0.1,0.7c0.1,0.1-0.3,0.7-0.5,0.7
			c-0.3,0-0.3,0.3-0.1,0.4c0.1,0.1,0.1,0.4,0.1,0.8c-0.1,0.4,0,0.7,0.1,0.7c0.1,0.1,0.2,0.2,0.2,0.4c0,0.2,0.1,0.3,0.2,0.3
			c0.3,0,0.3,0.1-0.1,0.5c-0.2,0.2-0.3,0.5-0.2,0.7c0.1,0.4,0,0.4-0.7,0.6c-0.8,0.2-1,0.5-0.4,0.5c0.7,0,0.6,0.9-0.2,0.9
			c-0.4,0-0.5,0.2-0.2,0.8c0.1,0.2,0,0.3-0.1,0.3c-0.1,0-0.4,0.2-0.6,0.5c-0.2,0.3-0.3,0.5-0.4,0.5c-0.1,0-0.2,0.3-0.4,0.6
			c-0.4,0.7-0.8,1.2-1,1.2c-0.1,0-0.3,0.2-0.4,0.5c-0.1,0.3-0.2,0.5-0.3,0.5s-0.2,0.3-0.3,0.6c-0.1,0.4-0.2,0.6-0.4,0.7
			c-0.2,0-0.3,0.2-0.3,0.4c0,0.3-0.3,1-0.7,1.8c-0.1,0.2-0.3,0.5-0.4,0.8c-0.1,0.2-0.3,0.5-0.4,0.6c-0.1,0.1-0.2,0.2-0.2,0.4
			c0,0.2-0.1,0.4-0.2,0.4c-0.1,0.1-0.2,0.2-0.2,0.3c0,0.3-0.6,0.9-0.9,0.9c-0.1,0-0.5,0.5-1,1c-1.3,1.6-1.4,1.4-1.4-1.9
			c0-3.1,0.6-6,2.2-10.8c0.4-1.3,0.7-2.3,1.3-4.1c0.3-0.9,0-0.4-1.1,1.6c-1,2-1.6,3.9-2.8,9.2c-1.4,6.3-1.3,8.8,0.2,13.8
			c0.4,1.3,0.8,3.3,0.8,4.3l0,0.6l-0.3-0.4c-0.2-0.2-0.5-1-0.8-1.7c-0.2-0.7-0.5-1.5-0.6-1.8c-0.8-2.2-1-3-1.3-4.8
			c-1.2-7.1,1.8-19.6,6.5-26.6C265.9,180.9,267.4,179,266.8,180 M260.8,181.7c-0.3,0.1-2.2,0.2-4.2,0.3c-3.6,0.1-4.7,0.2-8.7,0.8
			c-3.2,0.4-3.4,0.8-0.5,1c1.4,0.1,2.4,0.3,3.3,0.7c0.1,0.1,0.6,0.2,1,0.3c0.7,0.2,0.8,0.2,0.9,0.8c0.1,0.4,0.3,0.9,0.4,1.1
			c0.2,0.4,0.2,0.5,0,0.7c-0.1,0.1-0.2,0.3-0.2,0.4c0,0.1-0.3,0.7-0.7,1.3c-1.3,1.9-1.5,2.4-1.5,5.1c0,2.1-0.1,2.5-0.5,3.6
			c-0.4,1-0.7,3-1,5.9l-0.1,0.9l0.3-0.3c0.3-0.3,2.4-5.2,3.6-8.7c0.3-0.8,1.1-2.5,1.7-3.7c0.6-1.2,1.3-2.7,1.6-3.5
			c0.5-1.5,1.4-3.2,1.8-3.7c0.5-0.4,0.4-0.1-0.5,1.8c-0.6,1.4-0.9,2.4-0.4,1.8c0.1-0.1,0.5-0.7,0.9-1.2c0.4-0.6,1.2-1.8,1.6-2.7
			s1.1-1.9,1.3-2.1C261.5,181.6,261.4,181.5,260.8,181.7 M272.4,189.2c0.2-0.1,0.2,0,0.2,0.3c0,0.2-0.1,0.4-0.1,0.4
			c-0.3,0-0.5-0.4-0.5-0.8c0-0.3,0-0.3,0.1-0.1C272.2,189.2,272.3,189.3,272.4,189.2 M209.2,189.7c0,0.6,0.9,1,1.4,0.6l0.4-0.3
			l-0.4-0.1c-0.3-0.1-0.4,0-0.4,0.1c0,0.1-0.1,0.2-0.2,0.2s-0.2-0.1-0.2-0.3c0-0.2-0.1-0.3-0.3-0.3
			C209.3,189.7,209.2,189.7,209.2,189.7 M272.7,191c-0.2,0.9-0.4,1.1-0.4,0.4c0-0.7,0.1-0.9,0.4-0.9
			C272.8,190.5,272.8,190.7,272.7,191 M203.8,202.1c-0.1,0.2-0.2,0.2-0.4,0.1c-0.2-0.2-0.3-0.1-0.6,0.2c-0.2,0.2-0.4,0.4-0.6,0.4
			s-0.3,0.1-0.4,0.2c-0.1,0.1-0.4,0.3-0.7,0.5c-1,0.6-0.4,1.2,0.6,0.7c0.3-0.1,0.6-0.2,0.8-0.2c0.9,0,2.1-0.9,2-1.5
			c0-0.2-0.1-0.4-0.1-0.5C204.5,201.7,203.9,201.8,203.8,202.1 M205.8,202.2c-0.2,0.4,0,0.6,0.6,0.3c0.4-0.2,0.5-0.2,0.2-0.4
			C206.3,201.8,206,201.8,205.8,202.2 M27,207.9c0,0.1,0.1,0.2,0.3,0.2c0.2,0,0.3-0.1,0.3-0.1c0-0.1-0.1-0.2-0.3-0.2
			C27.1,207.7,27,207.8,27,207.9 M27.6,208.4c-0.2,0.2-0.1,0.4,0,0.4c0.1,0,0.2-0.1,0.2-0.2C28,208.3,27.8,208.2,27.6,208.4
			 M203.8,210.2c0,0.4-0.2,0.7-0.4,0.5c-0.1-0.2,0.1-0.9,0.2-0.9C203.8,209.8,203.8,210,203.8,210.2 M199.7,211.1
			c-0.1,0.3-0.2,0.6-0.2,0.7c-0.2,0.4-0.3-0.3-0.1-0.8C199.6,210.5,199.9,210.6,199.7,211.1 M193.7,211.2c0,0.1-0.1,0.3-0.3,0.5
			c-0.2,0.3-0.2,0.6-0.2,1.1c0.1,0.4,0,0.9-0.1,1.1c-0.1,0.2-0.2,0.5-0.1,0.7c0.1,0.2,0,0.1-0.2-0.1c-0.2-0.2-0.3-0.7-0.3-1.5
			c0-0.6-0.1-1.3-0.2-1.5c-0.1-0.2-0.1-0.4-0.1-0.5C192.4,211,193.7,211,193.7,211.2 M30.2,214.2c0,0.1,0.1,0.2,0.2,0.2
			c0.1,0,0.2-0.1,0.2-0.2c0-0.1-0.1-0.2-0.2-0.2C30.2,214,30.2,214.1,30.2,214.2 M189.9,215.5c0.2,0.3,0.2,0.7,0.2,1.1
			c-0.1,0.7,0.4,0.8,0.7,0.1c0.2-0.6,0.8-0.5,0.8,0.1c0,0.5,0.1,0.5,1,0.8c1.3,0.4,1.4,0.4,1.4,0.6c0,0.6,1.8,0.9,2,0.3
			c0.1-0.4,0.4,0.1,0.5,0.7c0,0.8,0.1,0.8,0.6,0.6c0.3-0.1,0.5-0.1,0.6,0c0.3,0.3,1.9,0.2,2.4-0.2c0.8-0.7,3.5-1.2,5.1-1.1
			c0.8,0.1,1.8,0.1,2.2,0.2c0.4,0,0.9,0.1,1.2,0.2c0.2,0.1,0.8,0.2,1.2,0.3s1.7,0.5,2.8,1c1.6,0.7,2.3,0.9,3.7,1.1
			c1.3,0.2,1.9,0.4,2.8,0.8c0.6,0.3,1.5,0.6,1.9,0.7c1.8,0.3,2.9,1.7,2.3,2.9c-0.2,0.4-3.9,0.7-4.9,0.4c-0.6-0.2-1.8-0.4-3.2-0.6
			c-0.5-0.1-1.1-0.3-1.4-0.4c-0.3-0.2-0.6-0.3-0.8-0.3c-0.3,0-1.5-0.3-3.2-0.7c-0.8-0.2-1.7,0-2.3,0.5c-0.5,0.4-1.4,0.4-1.3,0
			c0.1-0.4-0.4-0.9-1.4-1.5c-0.7-0.5-1.6-0.4-2.6,0.3c-0.3,0.2-0.5,0.3-0.6,0.2c-0.1-0.1-0.4-0.1-1,0c-1.8,0.4-4.1,0.3-6.9-0.5
			c-2.8-0.7-5.2-1-5.6-0.7c-0.1,0.1-0.7,0.3-1.3,0.4c-0.6,0.1-1.6,0.3-2.2,0.4c-0.6,0.1-1.5,0.2-1.9,0.3c-0.4,0-1.2,0.1-1.7,0.3
			c-2.1,0.7-6.1,0.3-7-0.6c-0.6-0.5-0.5-0.7,0.4-0.7c0.4,0,0.7-0.1,0.7-0.3c0.1-0.1,0.4-0.4,0.9-0.6c0.4-0.2,1.2-0.8,1.7-1.3l1-1
			l1.8,0c1,0,2,0.1,2.2,0.2c0.3,0.1,0.7,0,1.2-0.2c0.4-0.2,1.3-0.4,1.8-0.4c2.5-0.2,3.5-0.8,3.5-2.2c0-0.7,0.1-1.1,0.3-1.3
			C189.6,214.9,189.6,214.9,189.9,215.5 M144.8,216.6c0,0.4-0.1,0.9-0.2,1c-0.3,0.4-0.4-0.9-0.1-1.4
			C144.8,215.7,144.8,215.8,144.8,216.6 M143.2,218.4c-0.1,0.1-0.2,0.1-0.2-0.2c0-0.5,0.2-0.8,0.3-0.3
			C143.3,218,143.3,218.3,143.2,218.4 M200.8,225c0.1,0.2-0.6,0.5-1.1,0.4c-0.4-0.1-0.5-0.3-0.1-0.4
			C199.9,224.8,200.6,224.8,200.8,225 M203.9,225.5c-0.2,0.1-1.2,0.1-2-0.1c-0.4-0.1-0.4-0.4,0-0.3c0.2,0,0.4,0,0.6-0.1
			c0.2-0.1,0.5-0.1,0.9,0.1C204.1,225.3,204.1,225.4,203.9,225.5 M330.8,225.8c-0.2,0.3,0.1,0.5,0.6,0.5c0.6,0,0.6-0.2,0.2-0.5
			C331.1,225.6,330.9,225.6,330.8,225.8 M216.2,228.3c0.4,0.2,0.7,0.9,0.4,0.9c-0.3,0-1.1-0.6-1.3-0.8
			C215.1,227.9,215.5,227.9,216.2,228.3 M317.1,228.7c-0.7,0.9-0.8,1-1.2,0.9c-0.5-0.2-1,0.2-0.8,0.7c0.2,0.5-0.3,1.1-1.1,1.6
			c-0.3,0.2-0.5,0.9-0.3,0.9c0.3,0,1.5-1.5,1.7-2c0.2-0.5,0.3-0.6,0.7-0.6c0.4,0,0.6-0.2,1.1-1C318,227.9,317.9,227.7,317.1,228.7
			 M214.8,231.1c0,0.1-0.1,0.3-0.1,0.3c-0.2,0.1-0.4-0.3-0.2-0.5C214.6,230.8,214.8,230.8,214.8,231.1 M213.2,232.4
			c-0.2,0.2-0.4,0-0.3-0.2c0.1-0.1,0.2-0.1,0.3-0.1C213.3,232.2,213.3,232.3,213.2,232.4 M336.4,234.4c0.6,0.8,0.5,0.9-0.2,0.2
			c-0.6-0.6-0.7-0.8-0.4-0.8C335.9,233.8,336.2,234.1,336.4,234.4 M242.6,234.3c0,0.1-0.1,0.6-0.2,1.2c-0.1,1.3,0.3,1.4,1,0.2
			l0.4-0.7l-0.3-0.4C243.1,234.2,242.8,234,242.6,234.3 M185.8,234.9c-0.2,0.1-0.5,0.2-0.6,0.2c-0.2,0-0.5,0.1-0.7,0.2
			c-0.7,0.4-1.5,0.5-2.9,0.1c-1.7-0.4-2.2-0.2-2.2,1.2c0,0.1,0,0.7-0.1,1.3c0,0.6,0,1.1,0.1,1.1c0.1,0.1,0.2,0.3,0.2,0.5
			c0,0.2,0.1,0.4,0.3,0.5c0.2,0,0.3,0.2,0.3,0.4c0,0.5,0.8,1.2,1.5,1.3c0.6,0.1,1.6,0.7,2,1.3c0.2,0.2,0.6,0.4,1.1,0.6
			c0.4,0.1,1.1,0.4,1.4,0.7c0.6,0.5,0.7,0.5,1.2,0.3c0.6-0.2,0.8-0.1,0.8,0.4c0,0.4,0.5,0.6,1.6,0.6c0.3,0,0.9,0.1,1.4,0.3
			c0.5,0.1,1.5,0.3,2.2,0.3c0.8,0,1.7,0.1,2.1,0.3c1.6,0.4,2,0.5,2.5,0.5c0.3,0,0.8-0.1,1.1-0.3c0.4-0.2,0.7-0.2,1.1-0.1
			c0.3,0.1,0.9,0.1,1.4,0.1c0.5,0,1.2,0.1,1.8,0.3c0.8,0.3,1,0.3,1.5,0.1c0.4-0.1,0.9-0.1,1.7,0c1.6,0.3,3-0.2,3.3-1.2
			c0.1-0.2,0.3-0.5,0.6-0.8c0.2-0.3,0.9-1,1.5-1.7s1.2-1.2,1.4-1.2c0.3,0,0.7-0.6,1.2-2.1c0.5-1.4,0.4-1.8-0.5-1.5
			c-0.4,0.1-0.9,0.1-2-0.2c-0.8-0.2-1.5-0.3-1.7-0.2c-0.3,0.1-1.3-0.2-1.3-0.5c0-0.3-0.6,0-0.7,0.4c-0.1,0.4,0,0.4-1.9,0.2
			c-0.5-0.1-1.1-0.1-1.1,0c-0.3,0.3-3.5,0-4.3-0.4c-0.4-0.2-0.8-0.3-1-0.3c-0.2,0-0.4-0.1-0.7-0.2c-0.2-0.1-0.8-0.3-1.2-0.4
			c-0.9-0.2-1-0.2-2.1-0.2c-1.3,0-1.5,0-2.1-0.4c-0.6-0.4-2.7-0.7-3.1-0.5c-0.1,0.1-0.3-0.1-0.4-0.3c-0.1-0.2-0.4-0.4-0.6-0.4
			c-0.2,0-0.8-0.2-1.4-0.4C187.3,234.6,186.2,234.6,185.8,234.9 M307.7,240.8c-0.2,0.5-0.2,1.6,0,1.6c0.4,0,1.1-1.5,0.8-1.8
			C308.1,240.2,307.8,240.3,307.7,240.8 M170.8,243.2c0,0.1-0.1,0.2-0.2,0.2c-0.1,0-0.2-0.1-0.2-0.2c0-0.1,0.1-0.2,0.2-0.2
			C170.7,243,170.8,243.1,170.8,243.2 M68.9,244.8c-0.4,0.3-0.5,0.7-0.1,0.7c0.3,0,1-0.7,0.8-0.9C69.4,244.4,69.3,244.5,68.9,244.8
			 M65,245.8c0,0.1-0.1,0.2-0.2,0.4c-0.2,0.2-0.2,0.1-0.2-0.1c0-0.2,0.1-0.4,0.2-0.4C64.9,245.7,65,245.7,65,245.8 M63.2,247.4
			c0,0.1-0.1,0.2-0.2,0.2s-0.2-0.1-0.2-0.2c0-0.1,0.1-0.2,0.2-0.2S63.2,247.3,63.2,247.4 M174.5,248.2c0.3,0.3,0.2,0.9-0.1,1.1
			c-0.3,0.3-0.6,0-0.6-0.7C173.8,248,174.1,247.8,174.5,248.2 M186.8,248.7c0,0.2,1.6,0.6,1.6,0.5c0-0.1,0-0.2-0.1-0.3
			C188.2,248.6,186.8,248.5,186.8,248.7 M182.3,249c0.2,0.4,0.6,0.4,0.6,0c0-0.1-0.2-0.3-0.4-0.3C182.2,248.6,182.2,248.7,182.3,249
			 M183.7,249.7c-0.8,0.4-0.9,0.7-0.3,0.7c0.5,0,1.3-0.4,1.5-0.7C185,249.2,184.6,249.3,183.7,249.7 M193.4,250.3
			c-0.2,0.3,0.1,0.8,0.4,0.9c0.4,0.1,0.4,0,0.3-0.6C194,250.2,193.6,250,193.4,250.3 M169.9,251.4c0.2,0.6,0.2,1.6,0,1.6
			c-0.4,0-1.4-1.5-1.4-2.2C168.5,250.3,169.7,250.8,169.9,251.4 M195.1,250.9c-0.1,0.3,0.3,1.1,0.6,1.1c0.1,0,0.3,0.2,0.5,0.3
			c0.2,0.2,0.4,0.3,0.7,0.2c0.2-0.1,0.5,0,0.7,0.3c0.4,0.4,0.9,0.6,0.9,0.3c0-0.5-0.4-1-0.9-1.1c-0.3-0.1-0.5-0.2-0.6-0.4
			c-0.1-0.2-0.3-0.3-0.7-0.3c-0.4,0-0.6-0.1-0.7-0.3C195.6,250.6,195.2,250.6,195.1,250.9 M178.3,251c0,0.3,0.4,0.8,0.6,0.8
			c0.3,0,0.2-0.4-0.1-0.7C178.5,250.8,178.3,250.8,178.3,251 M229.5,251.6c0,0.2-0.2,0.6-0.5,0.8l-0.5,0.4l-0.1-0.4
			c-0.1-0.4-0.1-0.5,0.3-0.8C229.4,251.1,229.5,251.1,229.5,251.6 M160.4,252.1c0.1,0.3,0.2,0.5,0.4,0.7s0.2,0.3,0.1,0.3
			c-0.2,0.2-1.2-0.9-1.1-1.2C160,251.5,160.3,251.6,160.4,252.1 M215.1,251.9c0.1,0.2-0.2,0.5-0.5,0.4c-0.1,0-0.1-0.2-0.1-0.3
			C214.5,251.6,214.9,251.6,215.1,251.9 M270.5,251.8c0.2,0.1,0.3,0.3,0.3,0.4c0,0.1,0.2,0.6,0.4,1c0.2,0.5,0.4,1.1,0.4,1.3
			c0,0.3,0.1,0.8,0.2,1.1c0.1,0.4,0.2,0.8,0.1,1.1c-0.1,0.3-0.2,1.1-0.2,1.8c-0.1,0.7-0.2,1.8-0.4,2.4c-0.1,0.6-0.2,1.3-0.1,1.6
			c0.1,0.6,0,1.2-0.3,1.2c-0.1,0-0.1-0.2-0.1-0.6c0.1-0.5,0-0.7-0.2-0.9c-0.2-0.2-0.3-0.4-0.3-0.5c0-0.7-0.6-0.9-0.8-0.2
			c-0.1,0.8-0.3,0.8-0.6,0.1c-0.1-0.3-0.4-0.7-0.6-1c-0.2-0.2-0.4-0.6-0.5-0.8c-0.2-0.4-0.6-0.5-1.4-0.4c-0.3,0-0.6-0.1-0.6-0.1
			c-0.1-0.2-1.2-0.2-1.2,0c0,0.2,0,0.2-0.2,0c-0.1-0.1-0.1-0.3,0-0.5c0.2-0.2,0.2-0.3-0.1-0.5c-0.3-0.2-0.1-0.6,0.4-0.8
			c0.2-0.1,0.1-0.2-0.1-0.3c-0.3-0.2-0.2-0.3,1-1.6c0.7-0.7,1.8-2,2.4-2.7C269.3,251.6,269.7,251.4,270.5,251.8 M73.2,252
			c-0.2,0.1-0.2,0.2-0.1,0.3c0.1,0.1,0.2,0.1,0.4-0.1C73.7,252,73.5,251.8,73.2,252 M183.8,252.8c-1,0.9-0.9,0.8-0.1,0.9
			c0.8,0,1.5-0.7,1.2-1.4C184.8,251.9,184.7,251.9,183.8,252.8 M180.4,252.8c-0.2,0-0.3,0.2-0.2,0.3c0.1,0.3,0.7,0.2,0.8-0.1
			C181,252.7,181,252.6,180.4,252.8 M178.3,253.2c0,0.2-0.1,0.5-0.2,0.7c-0.1,0.3-0.1,0.3,0.1,0.3c0.1,0,0.3-0.1,0.3-0.2
			c0-0.1,0.1-0.3,0.3-0.4c0.5-0.3,0.4-0.7-0.1-0.7C178.4,252.8,178.3,252.9,178.3,253.2 M199.5,253.1c0,0.1,0.1,0.3,0.2,0.3
			c0.1,0.1,0.2-0.1,0.2-0.2c0-0.2-0.1-0.3-0.2-0.3C199.6,252.8,199.5,252.9,199.5,253.1 M228.1,253.4c0,0.2-0.2,0.6-0.5,0.9
			s-0.5,0.6-0.5,0.7s-0.1,0.2-0.2,0.2c-0.3,0-0.3,0,0-0.8C227.5,253.1,228,252.6,228.1,253.4 M133.2,254.7c-0.6,0.6-1.3,1.1-1.4,1.1
			c-0.1,0-0.4,0.2-0.7,0.4c-0.7,0.6-0.3,0.9,0.8,0.7c2.1-0.4,2.5-0.7,1.7-1.2c-0.3-0.2-0.3-0.3-0.2-0.4c0.3-0.1,1.1-1.4,1-1.6
			C134.4,253.7,133.9,254.1,133.2,254.7 M211.1,253.8c-0.2,0.2-0.1,0.4,0.2,0.4c0.2,0,0.3-0.1,0.3-0.2
			C211.5,253.7,211.3,253.6,211.1,253.8 M212,253.8c0,0.2,0.4,0.5,0.7,0.5c0.2,0,0.3-0.1,0.2-0.3c-0.1-0.1-0.1-0.3-0.1-0.3
			c0,0-0.2-0.1-0.4-0.1C212.2,253.7,212,253.7,212,253.8 M173.9,254.5c-0.1,0.1-0.2,0.1-0.2-0.1c0-0.1,0.1-0.3,0.1-0.4
			s0.2,0,0.2,0.1C174,254.3,174,254.4,173.9,254.5 M355.8,256.7c2.5,3.6,3.2,5,3.2,6c0,0.2,0.2,0.6,0.4,1c0.2,0.4,0.5,1,0.6,1.3
			c0.1,0.4,0.5,1.2,0.8,1.8c0.3,0.6,0.9,1.7,1.2,2.3c0.3,0.7,0.6,1.3,0.8,1.4c0.1,0.1,0.3,0.4,0.4,0.6c0.1,0.2,0.6,1.5,1.2,2.8
			c1.8,3.8,2,4.4,1.3,3.8c-0.3-0.3-0.3-0.3,0.4,1.5c0.8,1.8,1.2,3.1,1.4,4.2l0.1,0.8l-0.3-0.4c-0.2-0.2-0.6-1.1-1-2
			c-1.7-3.8-4.1-9-5.6-11.9c-0.9-1.7-2.3-4.7-3.1-6.6c-0.8-1.9-1.9-4.5-2.4-5.8c-0.5-1.3-1.1-2.5-1.1-2.7l-0.1-0.4l0.4,0.4
			C354.4,254.8,355.1,255.8,355.8,256.7 M161.8,255c0.1,0.4-0.1,0.7-0.4,0.4c-0.2-0.2-0.1-0.8,0.2-0.8
			C161.6,254.7,161.7,254.8,161.8,255 M135.8,255.8c-0.1,0.1-0.1,0.5-0.1,0.8c0,0.6,0.2,0.3,0.4-0.5
			C136.2,255.5,136,255.3,135.8,255.8 M196.7,256.2c0,0.2,0.1,0.3,0.2,0.3c0.1,0,0.2-0.1,0.2-0.2c0-0.1-0.1-0.3-0.2-0.3
			C196.7,255.9,196.7,256,196.7,256.2 M182.8,256.6c-0.1,0.1-0.1,0.3-0.1,0.5c0,0.4,0.4,0.5,0.6,0.2
			C183.3,257,183,256.4,182.8,256.6 M211.7,256.8c0.1,0.1,0.3,0.2,0.3,0.2c0.1,0,0.1-0.1,0-0.2c-0.1-0.1-0.2-0.2-0.3-0.2
			C211.5,256.5,211.5,256.5,211.7,256.8 M180.3,257.2c-0.3,0.7-0.3,0.6,0.1,0.6c0.2,0,0.3-0.1,0.3-0.2c0-0.1,0-0.4,0.1-0.6
			C180.9,256.5,180.6,256.6,180.3,257.2 M210.2,260.1c0,0.3-0.4,0.2-0.5-0.1c0-0.1,0.1-0.2,0.2-0.2S210.2,260,210.2,260.1
			 M225,260.6c0.1,0.2-0.5,1.1-0.6,0.9c-0.1-0.1,0.2-1.1,0.4-1.1C224.9,260.3,225,260.4,225,260.6 M270.6,261.2
			c0,0.3,0.1,0.5,0.1,0.5c0.2,0,0.2-0.8,0-0.9C270.6,260.7,270.6,260.9,270.6,261.2 M172.5,261.4c0,0.1-0.1,0.3-0.2,0.5
			c-0.2,0.3-0.5-0.1-0.4-0.4C172.1,261.1,172.5,261.1,172.5,261.4 M179.1,261.4c0.1,0.3-0.6,1.2-0.9,1.2c-0.4,0-0.3-0.5,0.1-1.1
			C178.7,261.2,179,261.1,179.1,261.4 M175,262.1c0.1,0.3-0.9,1.2-1.3,1.3c-0.4,0-0.3-0.4,0.3-1C174.6,261.6,174.9,261.6,175,262.1
			 M2.5,263c0.4,0.4,0.4,0.7,0.1,0.7c-0.2,0-0.8-0.6-0.8-0.9C1.8,262.6,2.2,262.7,2.5,263 M4.1,264.1c0.8,0.8,0.5,1.2-0.4,0.5
			c-0.7-0.6-0.8-0.9-0.3-0.9C3.5,263.7,3.8,263.9,4.1,264.1 M271,264.5c0,0.3,0,0.5-0.1,0.4c-0.1-0.1-0.2-0.9-0.1-0.9
			C270.9,264,271,264.2,271,264.5 M210.5,264.8c-0.2,0.2-0.5-0.1-0.4-0.3c0.1-0.1,0.2-0.1,0.3,0
			C210.5,264.6,210.5,264.7,210.5,264.8 M176.3,267.5c0.1,0.4-0.6,0.8-0.7,0.4c-0.1-0.4,0.1-0.8,0.4-0.7
			C176.1,267.2,176.3,267.4,176.3,267.5 M287,268c0.4,0.3,0.8,0.5,1,0.5c0.7,0,4.1,6.1,5.2,9.1c0.3,0.9,0.7,2,0.9,2.2
			c1.6,3.3,2.9,7.2,4.2,13.3c1.3,5.9,1.3,6.1-0.5,15.6c-0.3,1.5-0.6,2.6-0.8,2.6c-0.1,0,0-1.2,0.2-2.4c0.1-0.5,0.2-1.6,0.3-2.5
			c0.1-0.9,0.2-2.1,0.3-2.6c1-4.5-2.3-19.5-5.2-23.4c-0.3-0.5-0.7-1-0.9-1.3c-0.2-0.2-0.4-0.5-0.6-0.5c-0.2-0.1-0.4-0.3-0.5-0.5
			c-0.1-0.2-0.5-0.8-0.8-1.2c-0.3-0.4-0.7-1-0.9-1.4c-0.3-0.8-0.7-1-0.7-0.5c0,0.2,0.1,0.6,0.2,1c0.5,1.2,0.3,1.4-0.5,0.5
			c-0.6-0.8-0.9-1.6-0.5-1.7c0.5-0.1,0.1-2.7-0.6-3.6c-0.1-0.2-0.2-0.7-0.2-1.3c0-0.7-0.1-1.1-0.4-1.5
			C285.8,267.3,285.9,267.3,287,268 M363.2,270.2c-0.2,0.1-0.2,0.1-0.1-0.1c0.1-0.2,0.1-0.5,0.1-0.7c0-0.3,0-0.2,0.1,0.1
			C363.3,269.8,363.3,270.1,363.2,270.2 M286.7,271.1c0,0.1-0.1,0.2-0.2,0.2c-0.1,0-0.2-0.1-0.2-0.2c0-0.2,0.1-0.3,0.2-0.2
			C286.6,270.9,286.7,271,286.7,271.1 M24.2,272.9c0.4,1,0.6,2,0.3,1.5c-0.2-0.3-0.9-2-0.9-2.3C23.5,271.8,23.9,272.3,24.2,272.9
			 M134.8,272.7c0.1,0.2,0.2,1.1,0.2,2.1c0,1.9,0.3,3.4,1.2,6.8c0.2,0.8,0.5,2.2,0.7,3c0.2,0.8,0.5,2,0.8,2.7
			c1.2,2.9,1.7,5.8,1.2,6.9c-0.3,0.7-0.8,0.7-0.7,0c0.1-0.4,0-0.7-0.3-1.2c-0.2-0.3-0.4-0.6-0.4-0.7c0-0.8-1.5-1.8-1.6-1.2
			c0,0.2-0.1,0.4-0.2,0.5c-0.1,0.1-0.1,0.3-0.1,0.5c0,1.2-1.3-0.2-2.3-2.4c-3.7-8.8-3.9-11.4-1-14.6c0.7-0.8,1.5-1.7,1.7-2.1
			C134.4,272.3,134.6,272.2,134.8,272.7 M357.8,273.3c0.1,0.2,0.1,0.5,0.1,0.5c0,0-0.1-0.2-0.2-0.4
			C357.5,272.7,357.6,272.7,357.8,273.3 M367,276.5c2.3,5.5,3.3,8,4.2,10.5c0.8,2.4,1.5,4,2.7,6.8c1.8,4.2,4.7,11.4,4.9,12.2
			c0.3,1.6-0.8-0.5-1.9-3.3c-0.3-0.9-0.8-2-1.1-2.5c-0.3-0.5-0.7-1.4-1-2.1c-1.2-3-1.5-3.8-2.1-5c-0.6-1.4-1.4-3.4-1.4-3.7
			c0-0.1-0.4-1.1-0.9-2.1c-1.7-3.5-2.3-4.8-2.4-5.2c-0.1-0.2-0.4-1.3-0.8-2.3c-1.1-3.2-1.6-4.8-1.7-5.8
			C365.2,272.5,365.5,272.8,367,276.5 M112.7,274.2c-0.2,0.5-0.6,1.5-0.9,2.3c-1.9,4.2-2.6,8.9-2,13.8c0.1,0.7,0.3,3.2,0.5,5.4
			c0.5,6.8,0.7,8,0.9,9.6c0.1,0.9,0.3,2.4,0.4,3.3c0.2,1.8,0.6,3.3,0.8,3.5c0.6,0.4,1.7,3.1,2.4,6.1c0.2,1,0.8,2.7,1.2,3.9
			c0.7,2.2,0.8,2.5,0.8,3.3c0,1-0.9,0.4-1.3-0.9c-0.2-0.5-0.5-1.3-0.8-1.9c-1-1.9-1.4-2.8-1.7-3.9c-1.1-4.2-2.4-4.7-1.7-0.7
			c0.2,1.1,0.1,1.7-0.1,1.7c-0.3,0-0.4-0.6-0.6-1.8c-0.1-0.7-0.3-1.8-0.4-2.5c-0.2-0.8-0.4-2.2-0.5-4.1c-0.1-1.6-0.3-3.8-0.5-4.9
			c-0.2-1.5-0.4-3.4-0.5-6.6c-0.2-4.9-0.3-6.5-0.7-7.1c-0.4-0.6-0.1-6.9,0.4-9c0.8-3.2,4.2-10.8,4.6-10.3
			C113,273.3,112.9,273.7,112.7,274.2 M13.4,273.9c0.2,0.6,0,6.6-0.2,6.8c-0.3,0.3-0.5-5.4-0.3-6.7
			C13.1,273.4,13.3,273.3,13.4,273.9 M25.6,276.4c0.2,0.6,0.5,1.4,0.7,1.9c0.4,1.6,1.3,4.4,1.5,4.8c0.1,0.2,0.1,0.4,0,0.4
			c-0.1,0-0.3-0.6-0.6-1.4S26.4,280,26,279C24.8,275.6,24.4,273.5,25.6,276.4 M270.4,276.1c-0.1,0.7-0.2,2.7-0.4,4.5
			c-0.3,3.4-0.8,6.5-1.2,7.6c-0.3,0.8-0.4,0.7-0.2-0.4c0.5-2.9,0.6-4.2,0.7-6.6c0.1-1.5,0.2-3,0.3-3.5c0.1-0.5,0.2-1.2,0.2-1.7
			c0-0.7,0.2-1.3,0.5-1.3C270.5,274.8,270.5,275.4,270.4,276.1 M8.3,279.3c-0.2,0.7-0.4,1-0.6,0.8c0,0,0.1-0.6,0.3-1.1
			c0.2-0.6,0.3-1.3,0.4-1.5c0-0.2,0.1-0.1,0.1,0.3C8.5,278.2,8.4,278.9,8.3,279.3 M359.6,284.2c0.9,2.1,1.1,2.7,0.3,1.2
			c-0.6-1.1-1.9-4.2-1.9-4.4C358,280.8,358.9,282.5,359.6,284.2 M7.1,282.2c-0.1,0.3-0.2,1-0.3,1.5c-0.2,1.5-0.7,2.3-0.8,1.8
			c-0.2-0.4-0.1-0.7,0.3-1.7c0.1-0.3,0.3-0.9,0.5-1.4C7.1,281.5,7.3,281.4,7.1,282.2 M106.5,282.1c0.7,0,0.7,0.1,0.2,1.8
			c-0.3,1.2-0.8,2.1-2.1,4.1c-0.6,0.9-1.3,2.1-1.6,2.7c-2,3.8-5.1,5.8-9,5.8c-2.4,0-2.2-1.2,0.7-4.3c1-1.1,2-2.3,2.3-2.7
			c0.3-0.4,1-1.2,1.7-1.8c1.4-1.1,2.1-2.1,3-3.9c0.9-1.9,1.1-2,3-1.9C105.4,282,106.2,282.1,106.5,282.1 M78.7,283
			c1.6,2,1.1,5.4-1.2,8.4c-1.2,1.6-1.4,2.2-1.7,4.1c-0.1,0.7-0.2,1.6-0.3,2.1c-0.2,1.3-0.2,3.3,0.1,4c0.5,1.2,0.6,2,0.4,3.8
			c-0.2,1.6-1.1,5.8-1.5,6.4c-0.2,0.4-0.6,2.9-1,6.5c-1.1,9.5-3.2,18.6-5,21.3l-0.4,0.7l-0.1-0.5c0-0.3,0.1-0.7,0.3-1
			c1.3-2.3,3.7-12.5,4-17.8c0.2-2.4,0.5-4.2,0.9-4.9c0.2-0.5,0.5-5.2,0.5-10.5c0-3.5,0.1-4.4,0.4-5.6c0.2-0.8,0.5-2.1,0.6-3
			c0.1-0.9,0.5-2.2,0.8-3c1-2.7,1.3-4.5,1.5-7C77.3,282.6,77.7,281.7,78.7,283 M268.4,289.4c-0.2,0.7-0.3,0.8-0.4,0.8
			c-0.1-0.1,0.2-1,0.3-1C268.5,289.2,268.5,289.3,268.4,289.4 M367.3,297.5c0.2,0.4,0.5,1.3,0.7,2c0.2,0.8,0.7,2.1,1,3
			c1,2.8,0.4,2.9-0.7,0.2c-0.1-0.3-0.5-1.5-0.8-2.8c-0.3-1.3-0.6-2.5-0.7-2.7C366.7,296.6,367,296.8,367.3,297.5 M107,305.6
			c0,2.8,0,5.3,0.1,5.4c0,0.1,0.2,1.9,0.4,3.9c0.3,3.7,0.8,6.7,1.3,9.1c1,4.9-0.1,4.6-1.2-0.3c-0.2-1.1-0.6-2.5-0.8-3.1
			c-0.7-2.6-1-8.3-0.6-11.9c0.1-0.9,0.3-3.3,0.3-5.3C106.8,298.2,107,299.4,107,305.6 M30.2,301.6c0,0.4,0,0.4-0.2,0.2
			c-0.2-0.3-0.2-0.7,0-0.7C30.1,301.2,30.2,301.4,30.2,301.6 M130.5,306.8c0.1,3.5-0.1,4.3-0.4,2.8c-0.2-0.8-0.3-6.1-0.1-6.4
			C130.3,302.6,130.4,303.5,130.5,306.8 M371.7,310.7c0.3,0,1.3,2.1,2.1,4.7c0.5,1.6,1.5,3.7,4,8.8c3.7,7.5,4.4,9,5.2,12.3
			c0.8,3.3,2.1,6.6,5,12.9c1.2,2.5,1.1,2.9-0.1,0.7c-4.6-8.3-4.9-9-7.3-16.2c-1-3-1.8-4.9-2.9-7.3c-2.1-4.3-3.2-6.9-5.5-13
			c-0.5-1.4-1-2.7-1.1-2.9c-0.2-0.5-0.2-0.7,0.1-0.3C371.4,310.5,371.6,310.7,371.7,310.7 M203.2,310.7c0.3,0.1,0.1,0.1-0.4,0.1
			c-0.4,0-0.9-0.1-1.1-0.1c-0.3-0.1-0.1-0.1,0.4-0.1C202.6,310.5,203.1,310.6,203.2,310.7 M386.2,323.8c1.4,3.1,1.8,4.1,1.8,4.5
			c0,0.8-2.6-5-2.9-6.4C384.9,321,385.2,321.4,386.2,323.8 M289.1,324c-2.3,3.8-8.7,10.8-13.5,14.7c-1.3,1.1-2.4,2-2.5,2.2
			c-0.2,0.4-2.5,2.2-5.7,4.5c-3.8,2.7-5.9,4.4-7.7,6.1c-0.9,0.8-1.8,1.6-2.1,1.8c-0.6,0.3-2.8,2.2-3.8,3.1c-0.3,0.3-1.3,0.9-2.3,1.5
			c-2.1,1.1-2.4,1.4-2.4,1.8c0,0.7,2.1,0.7,3.3,0c0.4-0.3,1-0.5,1.2-0.5c0.7,0,3.8-1.4,4.9-2.2c0.5-0.4,1-0.7,1.1-0.7
			c0.1,0,0.9-0.4,2.8-1.2c4.7-2.2,4.9-2.3,4.7-1.2c-0.1,0.6-0.1,0.6,0.4,0.8c0.9,0.2,1,0.3,0.7,1c-0.4,1-0.8,1.3-3.1,2.3
			c-1.2,0.5-2.5,1.1-2.9,1.3c-1.3,0.6-8.7,3-9.2,3c-0.3,0-1.1,0.2-1.9,0.5c-2.3,0.8-3.3,1-5.4,1.3c-1.6,0.2-2.1,0.3-3.1,0.8
			c-0.6,0.3-1.6,0.7-2,0.9c-1.7,0.6-4.5,1.8-4.8,2.1c-0.4,0.4-3.3,1.5-4.6,1.7c-1.9,0.4-6.9,1.6-7.7,1.8c-3,0.9-4.4,1.2-8.2,1.4
			c-4.5,0.3-6.4,0-7.6-1c-0.5-0.4-0.5-0.4-2.9-0.3c-2.7,0.2-4,0.1-5.8-0.1c-0.7-0.1-2.5-0.2-4.1-0.3c-3.5-0.1-5.9-0.3-7.2-0.6
			c-0.6-0.1-2.3-0.4-3.8-0.7c-1.5-0.2-3.6-0.7-4.8-0.9c-1.1-0.3-2.6-0.6-3.3-0.8c-3.1-0.6-11.6-3.4-15.2-4.8c-0.7-0.3-2.4-1-3.7-1.5
			c-1.3-0.5-2.5-1-2.6-1.1c-0.2-0.2-2-1-3.6-1.6c-0.5-0.2-1.3-0.7-1.8-1.1c-3.3-2.8-5.4-4.5-5.8-4.5c-0.4,0-2.8-2.5-3.4-3.4
			c-0.2-0.4-0.7-1-1.1-1.5c-2.3-2.8-3.5-5.4-2.5-5.4c0.1,0,0.3-0.1,0.4-0.3c0.3-0.6,1.8-0.8,2.5-0.3c0.4,0.2,0.8,0.5,1,0.6
			c0.2,0.1,0.6,0.3,0.9,0.5c0.3,0.2,0.6,0.3,0.8,0.3c0.2,0,0.7,0.4,1.1,1c1,1.2,1.5,1.5,1.9,1.2c0.3-0.2,1.3,0.7,2,1.9
			c0.3,0.4,1.9,1.8,2.1,1.8c0.4,0,2.1,1,2.1,1.2c0,0.5,0.5,1.2,1.6,2c0.6,0.4,1.7,1.4,2.4,2.1c0.8,0.7,1.6,1.3,1.8,1.4
			c0.2,0,1.1,0.4,2,0.8c2.8,1.3,5,2.1,8.2,3c0.5,0.1,1.9,0.4,3.2,0.6c2.9,0.4,4.8,1.1,5.7,2c1.2,1.3,3,1.8,7.5,2
			c2.1,0.1,3.6,0.2,4.2,0.4c0.5,0.1,2,0.3,3.3,0.4c1.3,0.1,2.8,0.3,3.3,0.4c1.3,0.4,4.6,0.2,4.7-0.2c0.1-0.3,0.3-0.3,1.5-0.2
			c2.4,0.1,1.8-0.4-0.8-0.8c-0.8-0.1-2-0.3-2.8-0.4c-0.7-0.1-2.3-0.3-3.6-0.4c-5.4-0.5-9.1-1.3-13.7-3.3c-0.6-0.2-1.5-0.6-1.9-0.8
			c-2.1-0.8-3.3-1.5-4.2-2.2c-0.5-0.4-1.2-0.8-1.4-0.9c-0.3-0.1-0.7-0.3-0.9-0.4c-0.2-0.2-1.1-0.6-1.9-1c-0.8-0.4-1.5-0.8-1.6-0.9
			c-0.3-0.4-1.6-1.2-2.8-1.8c-0.6-0.3-1.9-1-2.7-1.5c-1.5-0.9-3.2-1.8-4.5-2.3c-0.5-0.2-5.5-4.3-5.5-4.5c0-0.2,1.1,0.4,2.9,1.6
			c2.3,1.6,3.6,2.3,7.4,4.3c1.5,0.8,3.3,1.8,4.1,2.3c0.8,0.5,2.3,1.3,3.3,1.8s2.7,1.5,3.6,2.1c1.4,0.9,4.8,2.7,5.2,2.7
			c0.1,0,0.6,0.2,1.1,0.5c2.7,1.3,6.4,2.6,8.2,2.8c0.8,0.1,2.5,0.3,3.7,0.6c1.2,0.2,3.9,0.5,5.8,0.7c6.6,0.5,7.7,0.6,7.8,0.7
			c0.7,0.4,13,0.7,15.6,0.4c1.3-0.2,4.5-1.1,7.9-2.2c1.1-0.4,2.5-0.8,3-1c0.6-0.2,1.5-0.5,2-0.7c0.6-0.2,2.7-0.8,4.8-1.4
			c2.1-0.5,5-1.4,6.4-1.8c7.2-2.2,6-1.7,10.6-4.8c2.3-1.5,5.2-3.5,6.5-4.5s3.6-2.6,5-3.6c9.5-6.8,14.3-11.3,20.1-18.4
			c1.1-1.3,3.2-4.7,3.3-5.1c0-0.1,0.1,0,0.2,0.3C290,322.3,289.9,322.5,289.1,324 M388.8,335.2c0.3,1,1,2.9,1.5,4c1,2.4,1,2.2,2,5.8
			c0.8,2.9,1,4.1,0.8,4.2c-0.3,0.2-0.7-0.6-1.6-3.8c-1-3.3-2-6.3-3.4-10c-1.1-2.9-2.2-6.1-2.2-6.5
			C385.9,328.3,388.1,333.3,388.8,335.2 M110.3,331c0.3,0.5,0.3,1.2,0,1.1c-0.3-0.1-0.8-0.8-0.9-1.3
			C109.3,330.2,110,330.4,110.3,331 M390.8,334.9c0.5,1.1,1.3,3.2,1.9,4.6c4.3,10.3,6.7,18.6,3.6,12.2c-0.3-0.6-0.6-1.3-0.7-1.5
			c-0.1-0.3-0.3-0.8-0.6-2.3c-0.4-1.8-3.8-11.3-4.9-13.7c-0.3-0.7-0.6-1.6-0.7-2l-0.1-0.7l0.3,0.6
			C389.8,332.5,390.4,333.7,390.8,334.9 M140.5,336.8c0.3,0.3,0.5,0.6,0.4,0.6c-0.1,0-0.4-0.3-0.7-0.6c-0.3-0.3-0.5-0.6-0.4-0.6
			C139.9,336.2,140.2,336.4,140.5,336.8 M148.2,342.2c0.1,0.1,0.1,0.2,0,0.2c-0.1,0-0.3-0.1-0.4-0.2c-0.1-0.1-0.1-0.2,0-0.2
			C147.9,342,148.1,342.1,148.2,342.2 M149.4,343.2c0.1,0.1,0.1,0.2,0,0.3c-0.1,0.1-0.8-0.4-0.8-0.7
			C148.7,342.6,149.3,342.9,149.4,343.2 M380.9,345.8c0.9,1.9,1.4,3.4,1.2,3.4c-0.1,0-2-3.8-2.4-5
			C378.9,342,379.5,342.9,380.9,345.8 M68.1,351c-0.2,0.9-0.4,1.9-0.6,2.3c-0.2,0.4-0.5,1.4-0.7,2.2c-0.3,1-0.4,1.3-0.4,1
			c0-0.2,0.1-1,0.4-1.7c0.2-0.7,0.6-2.3,0.9-3.5c0.5-2.7,0.6-3.1,0.7-2.4C68.3,349.2,68.2,350.1,68.1,351 M154.6,350.1
			c0.3,0.2,1.2,0.7,2.1,1.2c0.9,0.4,2.1,1.2,2.8,1.7c0.7,0.5,2,1.2,2.8,1.6c0.9,0.4,1.8,0.9,2.1,1.2c0.6,0.5,2.1,1.2,3.6,1.8
			c1.5,0.5,3.2,1.5,3.2,1.9c0,0.4-1.2,0-3.6-1.2c-3.3-1.6-5.6-2.7-5.8-2.7c-0.4,0-3.1-1.9-5.8-4.1
			C153.6,349.6,152.9,348.8,154.6,350.1 M264.8,350.8c-0.1,0.4-2.5,3-3.1,3.3c-0.3,0.2-0.8,0.6-1.2,0.9c-0.4,0.3-0.9,0.7-1.2,0.8
			c-1,0.5-2.5,1-3.3,1.2c-0.5,0.1-1.3,0.4-1.9,0.7c-1.1,0.6-1.1,0.6-1.1,0.2c0-0.1,0.1-0.2,0.2-0.2s0.3-0.2,0.5-0.4
			c0.2-0.2,0.9-0.6,1.6-1c1.5-0.7,2.8-1.6,4.4-2.9C262.1,351.3,265,349.8,264.8,350.8 M383.5,351.7c0.3,0.7,0.1,0.8-0.2,0.2
			c-0.3-0.6-0.3-0.7-0.1-0.7C383.2,351.2,383.4,351.4,383.5,351.7 M395.7,353.7c0.3,0.6,0.4,0.8,0.1,0.8c-0.2,0-0.7-0.9-0.7-1.2
			C395.2,353,395.4,353.2,395.7,353.7 M384.9,354.8c0.9,1.9,1.5,3.5,1.4,3.8c-0.1,0.3-2.3-4.5-2.3-5.1
			C384,353.1,384.3,353.5,384.9,354.8 M392.2,360.3c0.2,0.7,0.6,2,0.9,2.9c0.3,0.9,0.9,2.7,1.5,4.2c1.2,2.9,1.7,4.6,1.7,5.3
			c0,0.8-0.3,0.7-0.7-0.3c-0.3-0.9-2.3-5.9-2.8-7c-0.8-1.9-1.8-5.9-1.7-6.5C391.4,358.2,391.6,358.6,392.2,360.3 M236.8,361
			c-4,0.9-5.6,1.3-8.2,2.4c-1.7,0.7-4,1.4-5.7,1.8c-0.8,0.2-2.2,0.5-3.1,0.7c-1.4,0.3-2,0.4-4.5,0.4c-1.6,0-3.7,0-4.7,0
			c-1.8,0-3.6-0.2-5.6-0.6c-1.2-0.3-3-0.3-3-0.1c0,0.2,1.1,0.7,1.4,0.7c0.5-0.1,0.7,0,0.7,0.2c0,0.3,1.6,0.9,2.2,0.9
			c0.4,0,1,0.3,0.9,0.5c-0.6,0.9,11.1,1.3,14.8,0.5c1.2-0.3,2.3-0.5,2.4-0.5c0.8,0,3.2-1,6-2.4c3.3-1.6,4.8-2.3,6.8-2.8
			c3.8-0.9,4.4-1.2,4-1.7C240.8,360.4,239.6,360.4,236.8,361 M245.8,361c-0.9,0.5-0.2,1.3,1.2,1.3c0.5,0,1.5-0.7,1.5-1.1
			C248.5,360.8,246.6,360.7,245.8,361 M389.9,367.2c0.1,0.3,0.1,0.5,0,0.6c-0.1,0.1-0.6-1-0.6-1.3
			C389.3,366.1,389.8,366.7,389.9,367.2 M127.7,376.2c0.5,0.3,2,1.1,3.3,1.9c1.3,0.8,2.9,1.7,3.5,2c1,0.5,2.3,1.5,1.9,1.5
			c-0.1,0-0.6-0.2-1-0.4c-0.5-0.2-0.9-0.4-1.1-0.4s-0.6-0.2-1-0.5s-1.3-0.8-2.1-1.3c-1.2-0.7-5-3.4-5-3.5
			C126.2,375.5,126.7,375.7,127.7,376.2 M140.4,383.7c1.6,1.1,3.2,2,5.9,3.4c2.5,1.2,2.8,1.5,2.2,1.4c-1.7-0.2-9.3-4.4-9.3-5.1
			C139.2,382.9,139.5,383,140.4,383.7 M156.2,391.3c0.3,0.3-0.5,0.2-0.9-0.2l-0.4-0.3l0.6,0.2C155.8,391.1,156.1,391.2,156.2,391.3
			 M157.4,391.7c0.2,0.3,0,0.3-0.5,0.1c-0.2-0.1-0.4-0.3-0.4-0.3C156.7,391.3,157.3,391.5,157.4,391.7 M160.1,392.7
			c0.4,0.2,0.6,0.3,0.4,0.3c-0.4,0-1.5-0.4-1.5-0.5C159,392.3,159.3,392.3,160.1,392.7 M169,395.2c0.2,0.1,0,0.1-0.3,0
			c-0.3-0.1-0.7-0.2-0.8-0.3C167.7,394.8,168.6,395,169,395.2 M170.5,395.8l0.4,0.3l-0.4-0.1c-0.2-0.1-0.5-0.2-0.6-0.3
			C169.7,395.4,170,395.5,170.5,395.8 M39.7,397.5c-0.2,0.4-0.5,2.1-0.5,2.5c0,0,0.3,0,0.7,0h0.7l0-0.8c0-0.4-0.1-1.1-0.1-1.5
			C40.5,396.8,40,396.7,39.7,397.5"/>
	</g>
</g>
</svg>
